<svg width="34" height="34" viewBox="0 0 34 34" fill="none" xmlns="http://www.w3.org/2000/svg">
<path d="M26.5058 10.2142C26.3741 10.0814 26.2174 9.97604 26.0448 9.90412C25.8722 9.83219 25.687 9.79517 25.5 9.79517C25.313 9.79517 25.1278 9.83219 24.9552 9.90412C24.7825 9.97604 24.6258 10.0814 24.4941 10.2142L13.94 20.7825L9.5058 16.3342C9.36906 16.2021 9.20765 16.0983 9.03077 16.0286C8.85389 15.9589 8.66502 15.9247 8.47493 15.928C8.28484 15.9312 8.09726 15.9719 7.9229 16.0477C7.74853 16.1235 7.59081 16.2329 7.45872 16.3696C7.32663 16.5064 7.22277 16.6678 7.15306 16.8447C7.08336 17.0215 7.04917 17.2104 7.05246 17.4005C7.05575 17.5906 7.09645 17.7782 7.17223 17.9525C7.24801 18.1269 7.3574 18.2846 7.49414 18.4167L12.9341 23.8567C13.0658 23.9895 13.2225 24.0949 13.3952 24.1668C13.5678 24.2387 13.753 24.2758 13.94 24.2758C14.127 24.2758 14.3122 24.2387 14.4848 24.1668C14.6574 24.0949 14.8141 23.9895 14.9458 23.8567L26.5058 12.2967C26.6496 12.1641 26.7644 12.003 26.8429 11.8238C26.9214 11.6446 26.9619 11.4511 26.9619 11.2555C26.9619 11.0598 26.9214 10.8663 26.8429 10.6871C26.7644 10.5079 26.6496 10.3469 26.5058 10.2142Z" fill="url(#paint0_linear_181_1425)"/>
<defs>
<linearGradient id="paint0_linear_181_1425" x1="25.3282" y1="7.41162" x2="4.15292" y2="10.3512" gradientUnits="userSpaceOnUse">
<stop offset="0.55569" stop-color="#FE1D51"/>
<stop offset="1" stop-color="#FF567D"/>
</linearGradient>
</defs>
</svg>
