<svg width="71" height="70" viewBox="0 0 71 70" fill="none" xmlns="http://www.w3.org/2000/svg">
<path d="M19.5626 56.5023C19.5626 56.4807 19.5626 56.4807 19.5626 56.5023C19.5626 56.4807 19.5626 56.4807 19.5626 56.5023C19.5626 56.4807 19.5626 56.373 19.6484 55.576C20.0131 51.3756 16.3445 48.5107 16.3445 48.5107C16.3445 48.5107 16.1729 51.6987 16.7736 53.3358C17.0739 54.1544 17.4386 54.779 17.7819 55.2314C14.1562 53.3358 9.69385 55.4253 9.69385 55.4253C9.69385 55.4253 12.6116 57.5147 14.5853 57.8378C17.9964 58.3548 19.5411 56.5023 19.5626 56.5023Z" fill="#554E6D"/>
<path d="M13.6195 51.8279C13.6195 51.8064 13.6624 51.7202 13.9199 50.9663C15.3573 47.0029 12.5468 43.2764 12.5468 43.2764C12.5468 43.2764 11.56 46.3136 11.7102 48.0584C11.7745 48.9415 11.9676 49.6093 12.2036 50.1478C9.20007 47.3906 4.33008 48.2307 4.33008 48.2307C4.33008 48.2307 6.60417 51.0094 8.44919 51.8279C11.6243 53.2281 13.5981 51.8279 13.6195 51.8279Z" fill="#554E6D"/>
<path d="M9.07154 45.7752C9.07154 45.7536 9.1359 45.6675 9.58642 45.0212C11.9892 41.5748 10.2515 37.2451 10.2515 37.2451C10.2515 37.2451 8.51374 39.9161 8.21339 41.6394C8.06321 42.501 8.06321 43.2118 8.14903 43.7934C5.96075 40.3469 1.04785 39.8946 1.04785 39.8946C1.04785 39.8946 2.52816 43.1688 4.09428 44.4396C6.79744 46.6152 9.07154 45.7752 9.07154 45.7752Z" fill="#554E6D"/>
<path d="M6.26109 38.7527C6.26109 38.7311 6.34691 38.6665 6.96906 38.1495C10.1871 35.4354 9.60787 30.8042 9.60787 30.8042C9.60787 30.8042 7.24796 32.9367 6.49708 34.5307C6.13237 35.3277 5.93929 36.017 5.89638 36.5771C4.65206 32.6998 0.0180664 30.9981 0.0180664 30.9981C0.0180664 30.9981 0.597316 34.5523 1.79872 36.1678C3.83682 38.9681 6.23964 38.7527 6.26109 38.7527Z" fill="#554E6D"/>
<path d="M5.33859 31.2352C5.36004 31.2352 5.44586 31.1706 6.17528 30.8475C9.97258 29.0596 10.6162 24.4499 10.6162 24.4499C10.6162 24.4499 7.78431 25.8931 6.64726 27.2286C6.08947 27.8964 5.72475 28.5211 5.53167 29.0596C5.36004 24.9669 1.3053 22.1235 1.3053 22.1235C1.3053 22.1235 0.962043 25.6993 1.69147 27.5733C2.93578 30.8259 5.33859 31.2352 5.33859 31.2352Z" fill="#554E6D"/>
<path d="M6.38995 23.7391C6.4114 23.7391 6.51867 23.7176 7.291 23.5668C11.4101 22.8344 13.2337 18.5478 13.2337 18.5478C13.2337 18.5478 10.1229 19.2156 8.68549 20.2065C7.95606 20.7019 7.46263 21.2189 7.14082 21.6712C8.02043 17.6647 4.86673 13.8735 4.86673 13.8735C4.86673 13.8735 3.60097 17.2339 3.8155 19.2371C4.18021 22.7052 6.38995 23.7391 6.38995 23.7391Z" fill="#554E6D"/>
<path d="M9.35046 16.7597C9.37191 16.7597 9.47918 16.7597 10.273 16.8459C14.435 17.2121 17.2883 13.5286 17.2883 13.5286C17.2883 13.5286 14.1132 13.3563 12.4827 13.9595C11.6675 14.261 11.0453 14.6272 10.5948 14.9719C12.4827 11.3315 10.4017 6.85107 10.4017 6.85107C10.4017 6.85107 8.32068 9.78059 7.99888 11.7623C7.48399 15.2088 9.329 16.7597 9.35046 16.7597Z" fill="#554E6D"/>
<path d="M14.0057 10.7933C13.9842 10.7933 13.9842 10.7933 14.0057 10.7933C14.0057 10.7933 14.1129 10.8364 14.8638 11.1164C18.8113 12.5596 22.5228 9.73782 22.5228 9.73782C22.5228 9.73782 19.4978 8.74695 17.7601 8.89774C16.8805 8.96236 16.2154 9.15622 15.6791 9.39317C18.4251 6.37749 17.5884 1.48779 17.5884 1.48779C17.5884 1.48779 14.7995 3.77109 13.9842 5.62357C12.5897 8.81157 13.9842 10.7933 14.0057 10.7933C13.9842 10.7933 13.9842 10.7933 14.0057 10.7933Z" fill="#554E6D"/>
<path d="M20.1417 6.63584C24.84 6.11886 26.9425 0.604492 26.9425 0.604492C26.9425 0.604492 23.4026 1.14301 21.7507 2.30619C18.9403 4.30946 19.1119 6.74354 19.1119 6.74354C19.1334 6.74354 19.2406 6.722 20.1417 6.63584Z" fill="#554E6D"/>
<path d="M33.9577 60.5089C33.9577 60.5089 33.9148 60.4012 33.5716 59.6903C31.7909 55.8777 27.1998 55.2314 27.1998 55.2314C27.1998 55.2314 28.6372 58.0748 29.9673 59.2164C30.6324 59.7765 31.2546 60.1427 31.7909 60.3365C27.7147 60.5089 24.8828 64.5585 24.8828 64.5585C24.8828 64.5585 28.4441 64.9031 30.3106 64.1708C33.5501 62.9214 33.9577 60.5304 33.9577 60.5089Z" fill="#554E6D"/>
<path d="M26.4918 59.4535C26.4918 59.4319 26.4704 59.3242 26.3202 58.5488C25.5908 54.413 21.3215 52.582 21.3215 52.582C21.3215 52.582 21.9865 55.7054 22.9734 57.1486C23.4668 57.881 23.9817 58.3764 24.4323 58.6995C20.4419 57.8164 16.666 60.9828 16.666 60.9828C16.666 60.9828 20.0128 62.2537 22.008 62.0383C25.4835 61.6721 26.4918 59.4535 26.4918 59.4535Z" fill="#554E6D"/>
<path d="M52.6439 55.2314C53.0086 54.779 53.3733 54.1759 53.6522 53.3358C54.2315 51.6772 54.0813 48.5107 54.0813 48.5107C54.0813 48.5107 50.4127 51.3756 50.7775 55.576C50.8418 56.373 50.8633 56.4807 50.8633 56.4807C50.8633 56.4807 52.4294 58.3548 55.8405 57.8163C57.8357 57.5147 60.732 55.4037 60.732 55.4037C60.732 55.4037 56.2696 53.3574 52.6439 55.2314Z" fill="#554E6D"/>
<path d="M58.2008 50.1478C58.4368 49.6093 58.6298 48.9415 58.6942 48.0584C58.8444 46.3136 57.8575 43.2764 57.8575 43.2764C57.8575 43.2764 55.0685 47.0029 56.4845 50.9663C56.7634 51.7202 56.7848 51.8064 56.7848 51.8279C56.7848 51.8279 58.78 53.2281 61.9337 51.8279C63.7787 51.0094 66.0528 48.2307 66.0528 48.2307C66.0528 48.2307 61.2043 47.3906 58.2008 50.1478Z" fill="#554E6D"/>
<path d="M62.2553 43.7934C62.3411 43.2118 62.3626 42.501 62.191 41.6394C61.8692 39.9161 60.1529 37.2451 60.1529 37.2451C60.1529 37.2451 58.4151 41.5748 60.8179 45.0212C61.2685 45.6675 61.3328 45.7536 61.3328 45.7752C61.3328 45.7752 63.6069 46.6152 66.3101 44.4396C67.8762 43.1688 69.3565 39.8946 69.3565 39.8946C69.3565 39.8946 64.4436 40.3469 62.2553 43.7934Z" fill="#554E6D"/>
<path d="M68.6271 36.1678C69.8071 34.5307 70.4078 30.9981 70.4078 30.9981C70.4078 30.9981 65.7738 32.6998 64.5509 36.5986C64.4865 36.017 64.3149 35.3277 63.9502 34.5307C63.1993 32.9367 60.8394 30.8042 60.8394 30.8042C60.8394 30.8042 60.2602 35.4354 63.4782 38.1495C64.0789 38.6665 64.1647 38.7311 64.1647 38.7311C64.1647 38.7527 66.589 38.9681 68.6271 36.1678Z" fill="#554E6D"/>
<path d="M63.757 27.2286C62.62 25.8931 59.7881 24.4499 59.7881 24.4499C59.7881 24.4499 60.4317 29.0596 64.229 30.8475C64.937 31.1921 65.0442 31.2352 65.0442 31.2352C65.0442 31.2352 67.447 30.8259 68.6913 27.5733C69.4208 25.6993 69.0775 22.1235 69.0775 22.1235C69.0775 22.1235 65.0442 24.9669 64.8726 29.0596C64.6795 28.5211 64.3363 27.8964 63.757 27.2286Z" fill="#554E6D"/>
<path d="M61.7191 20.2064C60.2817 19.2155 57.1709 18.5478 57.1709 18.5478C57.1709 18.5478 58.973 22.8343 63.1136 23.5667C63.8859 23.696 63.9932 23.7175 64.0146 23.739C64.0146 23.739 66.2244 22.7051 66.5891 19.2586C66.8036 17.2553 65.5378 13.895 65.5378 13.895C65.5378 13.895 62.3841 17.6862 63.2637 21.6927C62.9419 21.2188 62.4485 20.7018 61.7191 20.2064Z" fill="#554E6D"/>
<path d="M53.1157 13.5286C53.1157 13.5286 55.9691 17.2121 60.1525 16.8459C60.9463 16.7813 61.0536 16.7597 61.0536 16.7597C61.0536 16.7597 62.92 15.1873 62.3837 11.7623C62.0834 9.75905 59.9809 6.85107 59.9809 6.85107C59.9809 6.85107 57.8999 11.353 59.7878 14.9719C59.3373 14.6057 58.7366 14.2395 57.8999 13.9595C56.2909 13.3563 53.1157 13.5286 53.1157 13.5286Z" fill="#554E6D"/>
<path d="M55.5618 11.1164C56.3127 10.8363 56.3985 10.8148 56.42 10.8148C56.42 10.8148 57.8144 8.81152 56.42 5.64506C55.6047 3.79257 52.8372 1.50928 52.8372 1.50928C52.8372 1.50928 52.0005 6.39898 54.7466 9.41465C54.2102 9.1777 53.5452 8.98384 52.6656 8.91922C50.9278 8.76843 47.9028 9.7593 47.9028 9.7593C47.9028 9.7593 51.6143 12.538 55.5618 11.1164Z" fill="#554E6D"/>
<path d="M50.2842 6.63584C51.1638 6.722 51.2925 6.74354 51.314 6.74354C51.314 6.722 51.4856 4.30946 48.6752 2.30619C47.0232 1.14301 43.4619 0.604492 43.4619 0.604492C43.4619 0.604492 45.5858 6.11886 50.2842 6.63584Z" fill="#554E6D"/>
<path d="M38.6131 60.3151C39.1495 60.0997 39.7716 59.755 40.4367 59.195C41.7668 58.0533 43.2042 55.21 43.2042 55.21C43.2042 55.21 38.6131 55.8562 36.8325 59.6689C36.4892 60.3797 36.4463 60.4874 36.4463 60.4874C36.4463 60.4874 36.8539 62.8999 40.0934 64.1493C41.9599 64.8817 45.5212 64.537 45.5212 64.537C45.5212 64.537 42.6893 60.5089 38.6131 60.3151Z" fill="#554E6D"/>
<path d="M45.9722 58.6995C46.4441 58.3549 46.9376 57.8595 47.431 57.1486C48.4179 55.7054 49.0829 52.582 49.0829 52.582C49.0829 52.582 44.8137 54.3914 44.0842 58.5488C43.9555 59.3242 43.9341 59.4319 43.9126 59.4535C43.9126 59.4535 44.9424 61.6721 48.375 62.0383C50.3702 62.2537 53.7169 60.9828 53.7169 60.9828C53.7169 60.9828 49.9411 57.8164 45.9722 58.6995Z" fill="#554E6D"/>
<path fill-rule="evenodd" clip-rule="evenodd" d="M34.5961 51.0605V48.7855C30.4297 48.6339 26.6586 46.9253 23.8418 44.2217L22.2411 45.8298C25.4682 48.9444 29.8048 50.9073 34.5961 51.0605ZM34.5961 46.7539C30.9876 46.604 27.7213 45.1226 25.2711 42.7858L26.6433 41.4072C28.7414 43.392 31.5232 44.6554 34.5961 44.803V46.7539ZM24.7123 42.2229L26.0846 40.8442C24.0714 38.6839 22.8101 35.8077 22.7198 32.6368H20.7793C20.8706 36.3458 22.3487 39.709 24.7123 42.2229ZM18.7581 32.6368C18.8503 36.9063 20.5542 40.7769 23.2829 43.659L21.6822 45.2672C18.5443 41.973 16.5873 37.5341 16.4944 32.6368H18.7581ZM20.7793 31.906H22.7198C22.8097 28.7492 24.0602 25.8845 26.0578 23.7274L24.6854 22.3486C22.3375 24.8594 20.8703 28.2111 20.7793 31.906ZM24.7415 32.6368C24.8302 35.2472 25.8659 37.6162 27.5143 39.4078L29.0017 37.9134C27.7322 36.506 26.9308 34.6644 26.8445 32.6368H24.7415ZM26.8445 31.906H24.7415C24.8297 29.3096 25.8548 26.9522 27.4877 25.1641L28.9754 26.6587C27.7211 28.0623 26.9302 29.8924 26.8445 31.906ZM28.8677 31.906C28.9494 30.4526 29.5158 29.1294 30.407 28.097L31.8987 29.5956C31.3823 30.2383 31.0479 31.0348 30.9743 31.906H28.8677ZM28.8677 32.6368H30.9743C31.0491 33.5219 31.393 34.3299 31.9236 34.9779L30.4329 36.4756C29.5267 35.4389 28.9502 34.1042 28.8677 32.6368ZM18.7581 31.906H16.4944C16.587 27.0228 18.533 22.5954 21.655 19.3041L23.2559 20.9125C20.543 23.7915 18.85 27.6506 18.7581 31.906ZM23.8135 20.3484C26.6333 17.629 30.4157 15.9095 34.5961 15.7573V13.4822C29.7908 13.6359 25.4428 15.6098 22.2128 18.7403L23.8135 20.3484ZM25.2427 21.7843C27.696 19.4318 30.9737 17.9394 34.5961 17.789V19.7399C31.5093 19.8881 28.7161 21.1624 26.6148 23.1628L25.2427 21.7843ZM28.0442 24.5989C29.7786 22.965 32.0671 21.9179 34.5961 21.7728V23.8885C32.6472 24.0287 30.8831 24.8396 29.5311 26.0928L28.0442 24.5989ZM32.4506 29.0259L30.9615 27.5298C31.9444 26.6419 33.2048 26.0581 34.5961 25.9256V28.0513C33.7841 28.168 33.0463 28.5157 32.4506 29.0259ZM34.5961 42.7701C32.081 42.6258 29.8037 41.5893 28.0729 39.9709L29.5601 38.4767C30.9082 39.7147 32.6611 40.5151 34.5961 40.6544V42.7701ZM34.5961 38.6173C33.2186 38.4861 31.9694 37.9124 30.9908 37.0393L32.4808 35.5424C33.0711 36.0387 33.7977 36.3767 34.5961 36.4914V38.6173ZM35.7277 48.7883V51.063C40.5855 50.9284 44.9807 48.9338 48.233 45.7625L46.6325 44.1546C43.7903 46.9147 39.9606 48.6549 35.7277 48.7883ZM51.6468 32.6368H53.9104C53.8181 37.4994 51.8881 41.9101 48.7891 45.197L47.1882 43.5886C49.8782 40.7141 51.5554 36.8717 51.6468 32.6368ZM47.215 20.983C49.8894 23.8544 51.5557 27.6853 51.6468 31.906H53.9104C53.8184 27.0575 51.8993 22.6583 48.8161 19.3744L47.215 20.983ZM47.685 31.906H49.6256C49.5354 28.2457 48.0947 24.9222 45.7853 22.4194L44.4124 23.7987C46.3718 25.9473 47.5961 28.7838 47.685 31.906ZM43.5602 32.6368H45.6633C45.5757 35.2127 44.5661 37.5534 42.9556 39.3363L41.4674 37.8411C42.6996 36.4432 43.4753 34.6299 43.5602 32.6368ZM45.6633 31.906H43.5602C43.4759 29.927 42.7105 28.1252 41.4934 26.7313L42.9819 25.2358C44.5771 27.015 45.5762 29.3442 45.6633 31.906ZM39.4304 31.906H41.537C41.4572 30.4871 40.9155 29.1923 40.0605 28.1709L38.5662 29.6722C39.0484 30.3012 39.3597 31.0691 39.4304 31.906ZM39.4304 32.6368H41.537C41.4564 34.0697 40.9047 35.3761 40.0351 36.4021L38.5419 34.9019C39.0379 34.2672 39.3585 33.4876 39.4304 32.6368ZM47.685 32.6368H49.6256C49.5351 36.3112 48.0837 39.6462 45.7586 42.1523L44.3859 40.7732C46.3608 38.6211 47.5957 35.7731 47.685 32.6368ZM48.2611 18.8077C45.0061 15.6205 40.5995 13.6147 35.7277 13.4798V15.7546C39.9746 15.8884 43.8156 17.6397 46.6607 20.4156L48.2611 18.8077ZM45.2317 21.8513C42.7527 19.4425 39.4166 17.9185 35.7277 17.7858V19.7362C38.881 19.8673 41.7324 21.1732 43.8597 23.2297L45.2317 21.8513ZM42.4306 24.6655C40.6697 22.9759 38.323 21.8973 35.7277 21.7684V23.883C37.7428 24.0085 39.5648 24.8507 40.9441 26.1589L42.4306 24.6655ZM39.5145 27.5952C38.5028 26.6532 37.185 26.0384 35.7277 25.9184V28.0405C36.6052 28.1493 37.3997 28.5273 38.0269 29.0898L39.5145 27.5952ZM42.4022 39.9045L40.9155 38.4109C39.5397 39.7037 37.7289 40.5352 35.7277 40.6598V42.7744C38.3091 42.6462 40.6445 41.5785 42.4022 39.9045ZM39.4856 36.9743L37.9974 35.4792C37.3749 36.0271 36.5915 36.3951 35.7277 36.5023V38.6244C37.1712 38.5056 38.4778 37.9013 39.4856 36.9743ZM45.2035 42.7189L43.8315 41.3405C41.7071 43.3812 38.867 44.6761 35.7277 44.8066V46.757C39.4026 46.6249 42.7274 45.1119 45.2035 42.7189ZM55.9345 32.2714C55.9345 43.7749 46.6524 53.1003 35.2024 53.1003C23.7523 53.1003 14.4702 43.7749 14.4702 32.2714C14.4702 20.7678 23.7523 11.4424 35.2024 11.4424C46.6524 11.4424 55.9345 20.7678 55.9345 32.2714ZM35.2023 35.3165C36.8763 35.3165 38.2334 33.9532 38.2334 32.2714C38.2334 30.5896 36.8763 29.2262 35.2023 29.2262C33.5284 29.2262 32.1713 30.5896 32.1713 32.2714C32.1713 33.9532 33.5284 35.3165 35.2023 35.3165Z" fill="#554E6D"/>
<path fill-rule="evenodd" clip-rule="evenodd" d="M34.9109 8.36505L34.6603 8.83604L34.3855 8.38129L33.9491 8.38942L34.4178 9.1365L33.9814 9.9323L34.4259 9.92418L34.6846 9.42883L34.9675 9.90794L35.4039 9.89982L34.9271 9.12026L35.3474 8.35693L34.9109 8.36505ZM32.0659 9.02279L32.3569 8.9903C32.4862 8.97406 32.6075 8.98219 32.7126 9.02279C32.8176 9.05527 32.8985 9.11211 32.9631 9.1852C33.0278 9.25828 33.0601 9.35572 33.0763 9.46941C33.0924 9.63182 33.0439 9.76987 32.9389 9.88355C32.8338 9.99724 32.6721 10.0622 32.4701 10.0866L31.775 10.1596L31.6133 8.62489L32.0255 8.58428L32.0659 9.02279ZM32.0983 9.35572L32.1468 9.78611L32.4377 9.75363C32.5186 9.74551 32.5751 9.72115 32.6156 9.68054C32.656 9.63994 32.6721 9.5831 32.6641 9.51813C32.656 9.45317 32.6317 9.40445 32.5832 9.36385C32.5347 9.33136 32.4701 9.31512 32.3892 9.32324L32.0983 9.35572ZM33.7795 9.93228L33.3672 9.97288L33.2056 8.43811L33.6178 8.39751L33.7795 9.93228ZM29.8997 8.94969L30.1987 10.4682L30.9181 10.3383C31.1202 10.2977 31.2656 10.2327 31.3546 10.1353C31.4435 10.0378 31.4758 9.91603 31.4515 9.77798C31.4354 9.68865 31.3869 9.62369 31.3141 9.57497C31.2414 9.52625 31.1525 9.50188 31.0393 9.50188C31.1202 9.45316 31.1848 9.39632 31.2172 9.33135C31.2495 9.26639 31.2656 9.20143 31.2495 9.12834C31.2252 8.9903 31.1444 8.89285 31.0232 8.84413C30.9019 8.7954 30.7322 8.78728 30.5301 8.82789L29.8997 8.94969ZM30.6756 9.43692L30.425 9.48564L30.3685 9.20143L30.5948 9.1527C30.6756 9.13646 30.7403 9.13646 30.7807 9.1527C30.8211 9.16895 30.8534 9.20143 30.8615 9.25827C30.8777 9.3476 30.813 9.40444 30.6756 9.43692ZM30.5301 10.0703L30.4735 9.76174L30.8049 9.69678C30.9423 9.67241 31.0232 9.7049 31.0393 9.81046C31.0555 9.91603 30.9989 9.98099 30.8534 10.0054L30.5301 10.0703ZM28.3478 10.1434C28.3074 9.99726 28.2993 9.85922 28.3236 9.72117C28.3478 9.59124 28.4044 9.47756 28.4933 9.38823C28.5822 9.29891 28.6954 9.23394 28.8409 9.19334C29.043 9.1365 29.2208 9.15274 29.3824 9.24206C29.5441 9.33139 29.6572 9.47756 29.73 9.68869L29.7623 9.78613C29.827 10.0135 29.8108 10.2165 29.7219 10.387C29.633 10.5576 29.4794 10.6794 29.2693 10.7362C29.0591 10.7931 28.8651 10.7687 28.7035 10.6713C28.5418 10.5657 28.4206 10.3952 28.364 10.1597L28.3478 10.1434ZM28.752 10.0622C28.7924 10.2003 28.849 10.3058 28.9217 10.3627C28.9945 10.4195 29.0834 10.4439 29.1804 10.4114C29.2774 10.387 29.342 10.3302 29.3743 10.2409C29.4067 10.1516 29.4067 10.0297 29.3582 9.86734C29.3178 9.72929 29.2612 9.63185 29.1884 9.56688C29.1157 9.50192 29.0268 9.48568 28.9298 9.51816C28.8328 9.54252 28.7681 9.59936 28.7358 9.69681C28.7035 9.77801 28.7035 9.90794 28.752 10.0622ZM28.1862 10.8256C28.2428 10.6551 28.2347 10.4602 28.1538 10.2328L28.1377 10.2084C28.0569 9.98106 27.9437 9.81053 27.7982 9.71309C27.6527 9.60752 27.4911 9.59128 27.3132 9.65624C27.1597 9.71309 27.0627 9.81053 27.0061 9.9567L26.9414 9.81865L26.5858 9.94858L27.289 11.9706L27.677 11.8325L27.4345 11.1423C27.5638 11.2154 27.7012 11.2235 27.8467 11.1748C28.0164 11.1098 28.1296 10.9961 28.1862 10.8256ZM27.58 10.046C27.6527 10.1029 27.7093 10.2003 27.7578 10.3384C27.8629 10.6469 27.8225 10.8337 27.6446 10.8906C27.5234 10.9312 27.4183 10.9149 27.3375 10.8337L27.1273 10.2328C27.1435 10.1272 27.2082 10.046 27.3294 10.0054C27.4264 9.97294 27.5072 9.98918 27.58 10.046ZM25.8503 10.2571L26.2302 10.0947L26.8364 11.5158L26.4565 11.6782L26.0847 10.8012L25.9877 11.8812L25.6078 12.0436L25.0016 10.6226L25.3815 10.4602L25.7533 11.3372L25.8503 10.2571ZM24.1448 11.053L24.2822 12.1736L23.4335 11.4184L22.9809 11.662L23.7083 13.0263L24.072 12.8314L23.6356 12.0112L24.3872 12.6608L24.6297 12.5309L24.5085 11.524L24.9611 12.3685L25.3248 12.1736L24.5974 10.8094L24.1448 11.053ZM22.4717 12.9125C22.6092 13.1074 22.6657 13.2942 22.6657 13.4728C22.6576 13.6515 22.5768 13.7977 22.4313 13.8951C22.302 13.9844 22.1727 14.0088 22.0272 13.9763L22.4394 14.5772L22.0999 14.8127L20.8875 13.0587L21.2028 12.8394L21.2998 12.9531C21.3159 12.7988 21.3887 12.677 21.518 12.5796C21.6716 12.474 21.8332 12.4415 22.0029 12.4984C22.1727 12.5552 22.3182 12.6852 22.4637 12.8882L22.4717 12.9125ZM22.1161 13.1237C22.0353 13.0019 21.9545 12.9288 21.8655 12.8963C21.7766 12.8638 21.6958 12.8719 21.615 12.9288C21.5099 13.0019 21.4614 13.0912 21.4776 13.2049L21.8332 13.7246C21.9302 13.7814 22.0353 13.7733 22.1404 13.7002C22.3101 13.5784 22.302 13.3916 22.1161 13.1237ZM20.4833 13.7895L20.8713 13.4809L20.6692 13.2211L19.5781 14.09L19.7801 14.3498L20.16 14.0494L20.9117 14.9995L21.235 14.7396L20.4833 13.7895ZM20.4025 15.4136L20.0953 15.6897L19.6993 15.2512L19.3194 15.5923L19.7155 16.0308L19.4083 16.3069L18.3818 15.17L18.6889 14.8939L19.1012 15.3487L19.4811 15.0076L19.0688 14.5529L19.376 14.2768L20.4025 15.4136ZM18.3253 17.1758C18.5273 17.1758 18.7051 17.0865 18.8587 16.924C18.9476 16.8347 19.0042 16.7292 19.0365 16.6155C19.0689 16.5018 19.085 16.3962 19.0608 16.2907L18.7617 16.2825C18.786 16.4287 18.7456 16.5586 18.6324 16.6723C18.5597 16.7454 18.4788 16.786 18.3899 16.7941C18.301 16.8022 18.2121 16.7698 18.1313 16.7129L18.8102 16.0064L18.689 15.8927C18.5112 15.7222 18.3333 15.641 18.1555 15.6329C17.9777 15.6248 17.816 15.6979 17.6706 15.8521C17.5736 15.9577 17.517 16.0714 17.4847 16.1932C17.4523 16.3231 17.4604 16.4449 17.5089 16.5749C17.5493 16.6967 17.6301 16.8185 17.7433 16.924L17.7756 16.9484C17.9454 17.1027 18.1313 17.1839 18.3253 17.1758ZM17.8322 16.2825C17.8322 16.2094 17.8565 16.1364 17.913 16.0795C17.9696 16.0146 18.0424 15.9902 18.107 15.9902C18.1717 15.9902 18.2444 16.0227 18.3091 16.0795L18.3333 16.1039L17.9373 16.518C17.8726 16.4368 17.8403 16.3556 17.8322 16.2825ZM15.6256 17.4356L15.3589 17.7686L16.9512 19.0841L17.9211 17.8904L18.3091 18.2071L18.5596 17.8985L17.9292 17.3382L17.7514 17.5574L16.4177 16.4612L16.151 16.7941L17.4846 17.8904L16.9593 18.5319L15.6256 17.4356ZM36.8993 9.39633L36.7377 9.38821L36.6973 9.95664L36.285 9.92416L36.3982 8.38127L36.8104 8.41376L36.77 8.99031L36.9155 8.99843L37.2954 8.44624L37.8127 8.48684L37.255 9.1852L37.748 10.0297L37.1984 9.98912L36.8993 9.39633ZM37.9986 8.86853C37.9258 8.9741 37.8773 9.10402 37.8531 9.25831L37.8612 9.28268C37.8288 9.52629 37.8612 9.72118 37.9743 9.88359C38.0794 10.0379 38.2491 10.1353 38.4674 10.1678C38.6937 10.2003 38.8715 10.1516 39.0251 10.0298C39.1786 9.90795 39.2675 9.7293 39.2999 9.49381L39.3079 9.38824C39.3241 9.16899 39.2756 8.99034 39.1625 8.84417C39.0493 8.698 38.8876 8.6168 38.6856 8.58431C38.5401 8.55995 38.4108 8.57619 38.2895 8.62492C38.1683 8.68176 38.0713 8.75484 37.9986 8.86853ZM38.2895 9.68058C38.2491 9.59937 38.233 9.48569 38.2572 9.33952C38.2815 9.17711 38.3219 9.06342 38.3865 8.98222C38.4593 8.91725 38.5401 8.88477 38.6371 8.90101C38.7422 8.91725 38.8149 8.96598 38.8553 9.0553C38.9038 9.13651 38.9119 9.25019 38.8957 9.39636C38.8715 9.55877 38.823 9.68058 38.7583 9.74554C38.6856 9.81051 38.6048 9.84299 38.5078 9.82675C38.4027 9.81863 38.3299 9.76179 38.2895 9.68058ZM40.4154 9.99729L41.0377 9.05532L41.5389 9.169L41.1994 10.6713L40.7952 10.582L41.0054 9.65623L40.4396 10.5008L40.1729 10.4358L40.0274 9.4451L39.8253 10.3546L39.4212 10.2653L39.7607 8.76298L40.2618 8.87667L40.4154 9.99729ZM43.2523 9.71302L42.541 10.59L42.5006 9.46129L42.0156 9.29888L41.5307 10.7687L41.9187 10.8986L42.2096 10.0135L42.2581 11.0123L42.5168 11.1016L43.1634 10.3139L42.8643 11.2153L43.2523 11.3452L43.7373 9.87543L43.2523 9.71302ZM44.3111 11.1504L44.9416 10.379L45.3457 10.5495L44.0848 11.9543L44.0202 12.0193C43.8585 12.1736 43.6807 12.2061 43.4867 12.1249C43.4301 12.1005 43.3816 12.068 43.3331 12.0274L43.4544 11.7432L43.5109 11.7676C43.5837 11.8 43.6403 11.8082 43.6888 11.8C43.7373 11.7919 43.7777 11.7676 43.8181 11.727L43.9151 11.6295L44.0121 9.98917L44.4162 10.1597L44.3111 11.1504ZM45.6853 12.4416L46.0571 12.6283L46.7441 11.2478L46.3723 11.0611L46.0975 11.6133L45.6448 11.3859L45.9197 10.8337L45.5559 10.6469L44.8689 12.0274L45.2326 12.2142L45.4994 11.6863L45.952 11.9137L45.6853 12.4416ZM47.8917 11.9137L48.2474 12.1248L47.4633 13.4565L47.1077 13.2454L47.5927 12.4253L46.6632 12.9856L46.3075 12.7744L47.0915 11.4427L47.4472 11.6538L46.9622 12.474L47.8917 11.9137ZM48.3768 13.3835L48.5142 13.481L48.4577 14.1306L48.9103 14.4473L48.9184 13.4729L49.7509 13.1643L49.3225 12.8638L48.7163 13.1481L48.5951 13.0668L48.9264 12.5877L48.587 12.3522L47.7141 13.619L48.0535 13.8545L48.3768 13.3835ZM49.7023 15.0888C49.7104 15.0481 49.7266 14.9994 49.7589 14.9588C49.6134 14.9832 49.476 14.9426 49.3547 14.8451C49.2335 14.7477 49.1688 14.6421 49.1446 14.5041C49.1203 14.3741 49.1527 14.2523 49.2335 14.1549C49.3386 14.025 49.4598 13.9681 49.6053 13.9762C49.7508 13.9844 49.9205 14.0574 50.0984 14.2036L50.2439 14.3254L50.3004 14.2523C50.3408 14.1955 50.3651 14.1387 50.3651 14.0818C50.3651 14.025 50.3328 13.9762 50.2681 13.9194C50.2115 13.8788 50.163 13.8544 50.1064 13.8544C50.0579 13.8544 50.0094 13.8788 49.9771 13.9275L49.6538 13.6677C49.7104 13.5946 49.7831 13.554 49.872 13.5215C49.961 13.4971 50.0579 13.4971 50.163 13.5296C50.2681 13.5621 50.3732 13.6108 50.4702 13.692C50.6157 13.8138 50.7046 13.9438 50.7369 14.0899C50.7692 14.2361 50.7207 14.3741 50.6157 14.5122L50.2034 15.0319C50.1145 15.1456 50.0579 15.243 50.0418 15.3324L50.0256 15.3486L49.7023 15.0888ZM49.6134 14.6502C49.6619 14.6908 49.7104 14.7152 49.767 14.7233C49.8235 14.7314 49.872 14.7314 49.9205 14.7071L50.0822 14.496L49.961 14.3985C49.7993 14.2686 49.67 14.2605 49.573 14.3579L49.5568 14.3741C49.5245 14.4147 49.5164 14.4554 49.5164 14.5041C49.5407 14.569 49.5649 14.6096 49.6134 14.6502ZM51.537 14.6341L51.238 14.358L50.1953 15.4867L51.044 16.2825L50.7368 16.6155L51.0197 16.8753L51.5694 16.315L51.3996 16.1607L52.216 15.2675L51.9169 14.9833L51.1006 15.8765L50.7207 15.5273L51.537 14.6341ZM53.2182 16.3068L53.5011 16.6073L52.3776 17.6629L52.0947 17.3625L52.7898 16.7128L51.7471 16.9889L51.4642 16.6885L52.5877 15.6328L52.8706 15.9333L52.1755 16.5829L53.2182 16.3068ZM54.6005 17.9391L54.3418 17.6224L53.283 17.8254L54.0185 17.2245L53.7599 16.8997L52.5636 17.8741L52.8223 18.1989L53.8811 17.9959L53.1456 18.5968L53.4042 18.9135L54.6005 17.9391ZM54.649 17.5087C54.7702 17.5249 54.8753 17.5006 54.9723 17.4194L54.7864 17.192C54.746 17.2326 54.6975 17.2488 54.649 17.2407C54.6005 17.2326 54.5601 17.2082 54.5197 17.1595C54.4792 17.1108 54.4631 17.0621 54.4631 17.0133C54.4631 16.9646 54.4873 16.924 54.5358 16.8834L54.3499 16.656C54.2529 16.7373 54.1963 16.8347 54.1963 16.9565C54.1963 17.0783 54.2448 17.192 54.3338 17.3057C54.4307 17.4194 54.5277 17.4925 54.649 17.5087Z" fill="#958CB7"/>
<path fill-rule="evenodd" clip-rule="evenodd" d="M18.1328 48.9902C16.1884 47.1926 10.9189 48.3797 8.52714 49.1981C10.6274 47.0065 13.519 46.363 14.7022 46.3151V45.6906H14.6925V38.2859C14.6925 36.8698 15.4332 35.557 16.6452 34.8248V44.8674H16.6475V45.6894C16.6467 45.6894 16.646 45.6894 16.6452 45.6894V45.6906H16.5967C16.1081 45.7146 15.8256 46.0814 15.7438 46.2679C17.448 46.2679 18.9837 46.8103 19.5385 47.0815C20.3478 46.3846 21.9665 44.0526 21.9665 40.3006C21.9665 32.7013 16.2639 31.7752 13.4126 32.2621V41.7318C11.6116 41.7318 8.34131 41.0017 8.34131 37.2875C8.34131 33.5734 11.2766 31.8457 15.8101 31.8457C20.3437 31.8457 23.7642 35.8004 23.7642 40.3006C23.7642 44.8008 20.8607 47.1458 19.6584 47.7173C18.6965 48.1745 18.2406 48.7564 18.1328 48.9902ZM10.3689 38.225C10.2722 37.8121 10.2167 37.3526 10.2167 36.8428C10.2167 36.6221 10.2271 36.4105 10.2467 36.2077H13.0854V38.225H10.3689ZM10.4816 38.6306C11.0401 40.3595 12.3475 41.1559 13.0854 41.3539V38.6306H10.4816ZM13.0854 35.8021V32.2422C12.2481 32.493 10.6778 33.537 10.3 35.8021H13.0854Z" fill="#958CB7"/>
<path fill-rule="evenodd" clip-rule="evenodd" d="M35.0046 69.3041V62.8336C34.5687 62.9477 33.6698 63.206 32.8307 63.5055V66.536H32.4735V63.6372C32.3148 63.6978 32.1613 63.7593 32.0168 63.8211C32.1267 63.7171 32.2823 63.5784 32.4735 63.4188V62.7869H30.9321L29.4798 63.6636L27.8301 61.9869L26.1382 61.091V49.7555L29.4595 46.4187L32.8307 48.9566V49.327V63.1302C33.4154 62.6723 34.1965 62.1281 35.0046 61.7286V49.4769C34.9304 48.7989 34.3628 47.1544 32.6858 46C34.064 46.3604 36.8092 47.7433 36.8535 50.4045L42.2837 46.4187L45.605 49.7555V61.091L43.9131 61.9869L42.2634 63.6636L40.8111 62.7869H39.2697V66.536H38.9126V49.327L36.8541 50.8727V67.45L35.0046 69.3041ZM32.4758 49.1274V51.9894C32.0339 52.2792 31.2184 52.7844 30.2269 52.7844C29.5317 52.7844 29.0726 52.6821 28.7079 52.5158C28.437 52.3923 28.2102 52.2303 27.9693 52.0314V50.6904L30.28 48.3689H31.5228L32.4758 49.1274ZM32.4758 56.6989V52.4889C31.9828 52.7931 31.1824 53.2057 30.2269 53.2057C29.4893 53.2057 28.9676 53.0969 28.5346 52.8995C28.327 52.8048 28.1432 52.6912 27.9693 52.5647V56.6231C28.1432 56.4966 28.327 56.383 28.5346 56.2883C28.9676 56.091 29.4893 55.9821 30.2269 55.9821C31.1823 55.9821 31.9828 56.3947 32.4758 56.6989ZM28.7079 56.672C28.437 56.7955 28.2102 56.9575 27.9693 57.1564V61.5486L28.1703 61.6417L30.2123 60.8432H32.4758V57.1984C32.0339 56.9086 31.2184 56.4034 30.2269 56.4034C29.5317 56.4034 29.0726 56.5057 28.7079 56.672ZM39.2676 49.1274V51.9894C39.7095 52.2792 40.525 52.7844 41.5165 52.7844C42.2118 52.7844 42.6708 52.6821 43.0355 52.5158C43.3064 52.3923 43.5332 52.2303 43.7741 52.0315V50.6904L41.4634 48.3689H40.2206L39.2676 49.1274ZM39.2676 56.699V52.4889C39.7606 52.7931 40.5611 53.2057 41.5165 53.2057C42.2542 53.2057 42.7758 53.0969 43.2088 52.8995C43.4164 52.8048 43.6002 52.6912 43.7741 52.5647V56.623C43.6002 56.4966 43.4164 56.383 43.2088 56.2883C42.7759 56.091 42.2542 55.9821 41.5166 55.9821C40.5611 55.9821 39.7606 56.3947 39.2676 56.699ZM43.0356 56.672C43.3064 56.7955 43.5333 56.9575 43.7741 57.1563V61.5486L43.5731 61.6417L41.531 60.8432H39.2676V57.1985C39.7095 56.9086 40.525 56.4034 41.5166 56.4034C42.2118 56.4034 42.6709 56.5057 43.0356 56.672Z" fill="#958CB7"/>
<path fill-rule="evenodd" clip-rule="evenodd" d="M50.4459 32.1249C49.536 32.1249 48.0221 33.7478 47.3789 34.5593C48.0128 34.238 49.3141 33.573 49.4483 33.483C49.6161 33.3706 49.9331 33.202 50.2781 33.483C50.623 33.764 51.3968 34.2417 52.1893 34.2417C52.8233 34.2417 53.1744 34.0357 53.2708 33.9326L55.3125 31.8252C54.9676 32.0063 54.0987 32.4659 53.3827 32.8555C52.8819 33.128 52.3783 32.8669 51.8325 32.584C51.4028 32.3612 50.947 32.1249 50.4459 32.1249ZM54.3762 46.8611V38.2535C54.6019 36.2436 55.877 32.224 59.1715 32.224C60.4145 32.224 62.0929 32.8403 62.7768 33.1484L60.9515 34.9974C60.6096 34.6842 59.5969 34.0577 58.2815 34.0577C56.6372 34.0577 56.245 34.9216 56.245 35.4217V41.7415C56.2601 42.2416 55.9675 43.4783 54.6762 44.424C54.6652 44.424 54.6701 45.8853 54.6749 46.8083C55.3594 46.6954 56.0979 46.6298 56.8874 46.6298C57.5132 46.6298 59.3 47.1537 60.1152 47.4156L61.5805 46.6994V44.5493H58.7031V46.6994H58.4016V39.4411L60.1548 38.6109C61.2529 38.9737 63.449 40.2578 63.449 42.4926V46.9353H61.8633L60.1152 47.8328L58.5803 49.3698C58.283 49.0542 57.3044 48.4231 55.7682 48.4231C53.8479 48.4231 50.9213 48.6239 49.0483 49.445C49.719 48.7079 51.5679 47.3918 54.3762 46.8611ZM50.4254 46.3103V41.3178H49.3044C49.01 41.3138 48.3534 41.5068 48.0829 42.3111V40.4529C48.2002 40.0969 48.6088 39.3851 49.3044 39.3851H50.4254C50.3843 38.6186 50.7078 36.8736 52.3301 36.0253V43.5552C52.2897 44.1449 51.8521 45.5216 50.4254 46.3103ZM61.5805 42.1642V44.1583H58.7031V42.1642H61.5805ZM58.7031 41.7732H61.5805V41.1842C61.4998 40.6218 61.0906 39.3962 60.099 38.9923L58.7031 39.7104V41.7732Z" fill="#958CB7"/>
</svg>
