<svg width="120" height="26" viewBox="0 0 120 26" fill="none" xmlns="http://www.w3.org/2000/svg">
<path d="M25.2498 0.274414H0.272949V20.1514C0.272949 20.1463 0.274008 20.1412 0.276057 20.1366L4.85093 9.69899C4.86426 9.66858 4.90753 9.67045 4.91824 9.7019L6.67305 14.8509C6.68304 14.8802 6.72227 14.8844 6.7382 14.858L13.2642 4.00377C13.2801 3.97724 13.3194 3.98157 13.3294 4.01096L15.7278 11.1113C15.7367 11.1378 15.7705 11.1448 15.789 11.1239L18.0677 8.55231C18.084 8.53389 18.1133 8.53681 18.1258 8.55812L25.2498 20.7432V0.274414Z" fill="#554E6D"/>
<path d="M25.2498 21.5171H0.309147C0.289156 21.5171 0.272949 21.5007 0.272949 21.4805V25.729H25.2498V21.5171Z" fill="#554E6D"/>
<path d="M32.5513 4.6285C32.5513 5.141 32.6752 5.58778 32.923 5.96887C33.1709 6.34995 33.4709 6.6719 33.8231 6.93472C34.1752 7.18439 34.6709 7.50634 35.31 7.90057C35.9883 8.30793 36.5166 8.64959 36.8948 8.92555C37.2731 9.20151 37.5927 9.55631 37.8535 9.98996C38.1275 10.4105 38.2644 10.9164 38.2644 11.5077C38.2644 12.1385 38.1079 12.7101 37.7949 13.2226C37.4818 13.7351 37.0188 14.1425 36.4057 14.4447C35.8057 14.7338 35.0818 14.8783 34.2339 14.8783C33.2296 14.8783 32.31 14.6484 31.4752 14.1884C31.41 14.149 31.3643 14.103 31.3382 14.0505C31.3252 13.9979 31.3122 13.9191 31.2991 13.8139L31.0448 11.1332C31.0317 11.0806 31.0578 11.0478 31.123 11.0347C31.2013 11.0215 31.2469 11.0412 31.26 11.0938C31.4687 12.0399 31.8535 12.8547 32.4143 13.538C32.9883 14.2213 33.7448 14.563 34.6839 14.563C35.3361 14.563 35.884 14.3856 36.3274 14.0308C36.784 13.6628 37.0122 13.0846 37.0122 12.2962C37.0122 11.7048 36.8818 11.1923 36.6209 10.7587C36.36 10.325 36.0405 9.97024 35.6622 9.69429C35.297 9.40519 34.7948 9.0701 34.1557 8.68902C33.5296 8.30793 33.0339 7.97941 32.6687 7.70346C32.3165 7.4275 32.0165 7.07927 31.7687 6.65876C31.5209 6.23825 31.3969 5.74547 31.3969 5.18042C31.3969 4.52338 31.5665 3.96489 31.9056 3.50497C32.2578 3.0319 32.7078 2.68366 33.2557 2.46027C33.8165 2.22374 34.41 2.10547 35.0361 2.10547C35.8057 2.10547 36.5687 2.26316 37.3253 2.57854C37.5209 2.64424 37.6188 2.75594 37.6188 2.91363L37.7557 5.18042C37.7557 5.23298 37.7231 5.25926 37.6579 5.25926C37.5927 5.25926 37.5535 5.23298 37.5405 5.18042C37.4362 4.4971 37.1557 3.86634 36.6992 3.28814C36.2427 2.69681 35.584 2.40114 34.7231 2.40114C33.9926 2.40114 33.4448 2.61796 33.0796 3.05161C32.7274 3.47211 32.5513 3.99775 32.5513 4.6285Z" fill="#958CB7"/>
<path d="M42.2599 5.6732C41.7642 5.6732 41.3729 5.74547 41.086 5.89002C40.799 6.02143 40.5708 6.2514 40.4012 6.57992C40.2447 6.90844 40.1207 7.37494 40.0294 7.97941C40.0294 8.00569 39.9903 8.01883 39.912 8.01883C39.8468 8.01883 39.8142 8.00569 39.8142 7.97941C39.8534 7.67717 39.899 7.19096 39.9512 6.52078C40.0034 5.8506 40.0294 5.33811 40.0294 4.98331C40.0294 4.9176 40.0686 4.88475 40.1468 4.88475C40.2251 4.88475 40.2642 4.9176 40.2642 4.98331C40.2642 5.15414 40.3621 5.26583 40.5577 5.3184C40.7534 5.35782 40.9947 5.37753 41.2816 5.37753C42.4295 5.40381 43.4143 5.41695 44.236 5.41695L45.9382 5.39724C46.173 5.3841 46.4795 5.37753 46.8578 5.37753C47.3274 5.37753 47.673 5.35125 47.8948 5.29869C48.1165 5.23298 48.26 5.10157 48.3252 4.90446C48.3513 4.86504 48.3969 4.84533 48.4622 4.84533C48.5274 4.84533 48.56 4.86504 48.56 4.90446C48.4817 6.32367 48.4426 7.34865 48.4426 7.97941C48.4426 8.00569 48.4035 8.01883 48.3252 8.01883C48.26 8.01883 48.2274 8.00569 48.2274 7.97941C48.2143 7.38808 48.1426 6.92815 48.0122 6.59963C47.8948 6.27111 47.6926 6.03457 47.4056 5.89002C47.1187 5.74547 46.7208 5.6732 46.2121 5.6732C45.6513 5.6732 45.2795 5.76519 45.0969 5.94916C44.9143 6.11999 44.823 6.47479 44.823 7.01356V13.0452C44.823 13.4526 44.8621 13.7482 44.9404 13.9322C45.0186 14.1162 45.1686 14.241 45.3904 14.3067C45.6121 14.3724 45.9773 14.4053 46.486 14.4053C46.5252 14.4053 46.5447 14.4447 46.5447 14.5235C46.5447 14.6024 46.5252 14.6418 46.486 14.6418C46.0817 14.6418 45.7686 14.6352 45.5469 14.6221L44.1773 14.6024L42.8664 14.6221C42.6316 14.6352 42.3056 14.6418 41.8882 14.6418C41.8621 14.6418 41.849 14.6024 41.849 14.5235C41.849 14.4447 41.8621 14.4053 41.8882 14.4053C42.3838 14.4053 42.749 14.3724 42.9838 14.3067C43.2186 14.241 43.3751 14.1162 43.4534 13.9322C43.5447 13.7351 43.5904 13.4394 43.5904 13.0452V6.97414C43.5904 6.59306 43.5577 6.3171 43.4925 6.14627C43.4404 5.9623 43.323 5.83746 43.1404 5.77176C42.9577 5.70605 42.6643 5.6732 42.2599 5.6732Z" fill="#958CB7"/>
<path d="M50.5098 14.8586C50.2489 14.8586 50.0402 14.7798 49.8837 14.6221C49.7272 14.4644 49.6489 14.2607 49.6489 14.011C49.6489 13.7614 49.7272 13.5643 49.8837 13.4197C50.0402 13.262 50.2489 13.1832 50.5098 13.1832C50.7837 13.1832 50.9924 13.2554 51.1359 13.4C51.2924 13.5445 51.3707 13.7482 51.3707 14.011C51.3707 14.2739 51.2924 14.4841 51.1359 14.6418C50.9924 14.7864 50.7837 14.8586 50.5098 14.8586Z" fill="#958CB7"/>
<path d="M64.9421 14.8783C63.5203 14.8783 62.2812 14.6024 61.2246 14.0505C60.1681 13.4986 59.3594 12.7495 58.7985 11.8034C58.2507 10.8572 57.9768 9.79941 57.9768 8.62988C57.9768 7.35522 58.2964 6.22511 58.9355 5.23955C59.5877 4.25399 60.4746 3.48525 61.5964 2.93334C62.7312 2.38143 64.0095 2.10547 65.4312 2.10547C66.0704 2.10547 66.6769 2.17117 67.2508 2.30258C67.8378 2.42085 68.3139 2.59168 68.6791 2.81507C68.7834 2.88078 68.8421 2.93991 68.8552 2.99247C68.8813 3.0319 68.9008 3.12388 68.9139 3.26843L69.1487 5.47609C69.1487 5.51551 69.1095 5.54179 69.0313 5.55493C68.9661 5.55493 68.9269 5.53522 68.9139 5.4958C68.6269 4.54966 68.1052 3.82034 67.3486 3.30785C66.6052 2.79536 65.6856 2.53912 64.5899 2.53912C62.9464 2.53912 61.6747 3.01876 60.7746 3.97804C59.8746 4.93731 59.4246 6.25139 59.4246 7.92028C59.4246 9.19494 59.679 10.3382 60.1877 11.35C60.7094 12.3487 61.4268 13.1306 62.3399 13.6957C63.2529 14.2607 64.2769 14.5432 65.4117 14.5432C66.0769 14.5432 66.5921 14.4841 66.9573 14.3658C67.3226 14.2476 67.59 14.0176 67.7595 13.676C67.9291 13.3343 68.0139 12.8284 68.0139 12.1582C68.0139 11.4749 67.9682 11.0018 67.8769 10.739C67.7986 10.463 67.6095 10.2791 67.3095 10.1871C67.0225 10.0951 66.5204 10.0491 65.803 10.0491C65.7247 10.0491 65.6856 9.99653 65.6856 9.8914C65.6856 9.85198 65.6921 9.81913 65.7051 9.79284C65.7312 9.75342 65.7573 9.73371 65.7834 9.73371C66.8008 9.79941 67.6226 9.83227 68.2487 9.83227C68.8617 9.83227 69.5008 9.81256 70.1661 9.77313C70.1922 9.77313 70.2117 9.79284 70.2248 9.83227C70.2509 9.85855 70.2639 9.88483 70.2639 9.91111C70.2639 10.0031 70.2313 10.0491 70.1661 10.0491C69.853 10.0359 69.6313 10.0819 69.5008 10.1871C69.3704 10.2791 69.2856 10.4762 69.2465 10.7784C69.2074 11.0806 69.1878 11.6063 69.1878 12.3553C69.1878 12.9466 69.2074 13.3671 69.2465 13.6168C69.2987 13.8665 69.3248 14.0242 69.3248 14.0899C69.3248 14.1687 69.3117 14.2213 69.2856 14.2476C69.2595 14.2739 69.2008 14.3001 69.1095 14.3264C67.5313 14.6944 66.1421 14.8783 64.9421 14.8783Z" fill="#958CB7"/>
<path d="M81.8636 14.4053C81.9158 14.4053 81.9419 14.4447 81.9419 14.5235C81.9419 14.6024 81.9158 14.6418 81.8636 14.6418C81.6288 14.6418 81.2506 14.6287 80.7288 14.6024C80.2071 14.5761 79.8288 14.563 79.594 14.563C79.3853 14.563 79.1114 14.5761 78.7723 14.6024C78.4331 14.6287 78.1723 14.6418 77.9897 14.6418C77.9375 14.6418 77.9114 14.6024 77.9114 14.5235C77.9114 14.4447 77.9375 14.4053 77.9897 14.4053C78.3288 14.4053 78.5766 14.3658 78.7331 14.287C78.9027 14.195 78.9875 14.0373 78.9875 13.8139C78.9875 13.6168 78.9092 13.3409 78.7527 12.9861L77.4223 10.1082H74.6831L73.8418 12.2173C73.6331 12.7167 73.5287 13.1306 73.5287 13.4591C73.5287 13.8008 73.6461 14.0439 73.8809 14.1884C74.1157 14.333 74.4744 14.4053 74.957 14.4053C75.0222 14.4053 75.0548 14.4447 75.0548 14.5235C75.0548 14.6024 75.0222 14.6418 74.957 14.6418C74.7614 14.6418 74.494 14.6287 74.1548 14.6024C73.7896 14.5761 73.4505 14.563 73.1374 14.563C72.8113 14.563 72.4265 14.5761 71.9831 14.6024C71.5917 14.6287 71.2787 14.6418 71.0439 14.6418C70.9787 14.6418 70.9461 14.6024 70.9461 14.5235C70.9461 14.4447 70.9787 14.4053 71.0439 14.4053C71.4483 14.4053 71.7678 14.3527 72.0026 14.2476C72.2374 14.1293 72.4526 13.9059 72.6483 13.5774C72.857 13.2489 73.1048 12.7364 73.3918 12.0399L76.2092 5.12129C76.2353 5.06872 76.2744 5.04244 76.3266 5.04244C76.3788 5.04244 76.4114 5.06872 76.4244 5.12129L79.5745 11.9414C79.9136 12.6773 80.181 13.2095 80.3766 13.538C80.5853 13.8665 80.794 14.0965 81.0027 14.2279C81.2245 14.3461 81.5114 14.4053 81.8636 14.4053ZM74.8201 9.75342H77.2657L75.9549 6.91501L74.8201 9.75342Z" fill="#958CB7"/>
<path d="M85.2405 12.9664C85.2405 13.3474 85.2731 13.63 85.3383 13.8139C85.4166 13.9979 85.5535 14.1293 85.7492 14.2082C85.9579 14.287 86.2644 14.3264 86.6688 14.3264H87.9601C88.6514 14.3264 89.1992 14.1096 89.6036 13.676C90.021 13.2423 90.3014 12.6444 90.4449 11.8822C90.4449 11.856 90.471 11.8428 90.5232 11.8428C90.5623 11.8428 90.5949 11.8494 90.621 11.8625C90.6601 11.8757 90.6797 11.8954 90.6797 11.9217C90.5884 12.5261 90.5427 13.3343 90.5427 14.3461C90.5427 14.4513 90.5166 14.5301 90.4645 14.5827C90.4253 14.6221 90.3536 14.6418 90.2493 14.6418H82.5992C82.5731 14.6418 82.56 14.6024 82.56 14.5235C82.56 14.4447 82.5731 14.4053 82.5992 14.4053C83.0296 14.4053 83.3426 14.3724 83.5383 14.3067C83.734 14.241 83.8644 14.1162 83.9296 13.9322C83.9948 13.7351 84.0274 13.4394 84.0274 13.0452V7.01356C84.0274 6.61934 83.9883 6.33024 83.91 6.14627C83.8448 5.9623 83.7144 5.83746 83.5187 5.77176C83.3231 5.69291 83.0166 5.65349 82.5992 5.65349C82.5731 5.65349 82.56 5.61407 82.56 5.53522C82.56 5.45638 82.5731 5.41695 82.5992 5.41695L83.4796 5.43666C83.9753 5.46295 84.36 5.47609 84.634 5.47609C84.9601 5.47609 85.3709 5.46295 85.8666 5.43666L86.6883 5.41695C86.7275 5.41695 86.747 5.45638 86.747 5.53522C86.747 5.61407 86.7275 5.65349 86.6883 5.65349C86.2579 5.65349 85.9449 5.69291 85.7492 5.77176C85.5535 5.83746 85.4166 5.96887 85.3383 6.16598C85.2731 6.34995 85.2405 6.63905 85.2405 7.03327V12.9664Z" fill="#958CB7"/>
<path d="M94.2972 12.9664C94.2972 13.3474 94.3298 13.63 94.395 13.8139C94.4733 13.9979 94.6102 14.1293 94.8059 14.2082C95.0146 14.287 95.3211 14.3264 95.7255 14.3264H97.0168C97.7081 14.3264 98.2559 14.1096 98.6603 13.676C99.0777 13.2423 99.3581 12.6444 99.5016 11.8822C99.5016 11.856 99.5277 11.8428 99.5798 11.8428C99.619 11.8428 99.6516 11.8494 99.6777 11.8625C99.7168 11.8757 99.7364 11.8954 99.7364 11.9217C99.6451 12.5261 99.5994 13.3343 99.5994 14.3461C99.5994 14.4513 99.5733 14.5301 99.5212 14.5827C99.482 14.6221 99.4103 14.6418 99.3059 14.6418H91.6558C91.6297 14.6418 91.6167 14.6024 91.6167 14.5235C91.6167 14.4447 91.6297 14.4053 91.6558 14.4053C92.0863 14.4053 92.3993 14.3724 92.595 14.3067C92.7906 14.241 92.9211 14.1162 92.9863 13.9322C93.0515 13.7351 93.0841 13.4394 93.0841 13.0452V7.01356C93.0841 6.61934 93.045 6.33024 92.9667 6.14627C92.9015 5.9623 92.7711 5.83746 92.5754 5.77176C92.3798 5.69291 92.0732 5.65349 91.6558 5.65349C91.6297 5.65349 91.6167 5.61407 91.6167 5.53522C91.6167 5.45638 91.6297 5.41695 91.6558 5.41695L92.5363 5.43666C93.0319 5.46295 93.4167 5.47609 93.6906 5.47609C94.0167 5.47609 94.4276 5.46295 94.9233 5.43666L95.745 5.41695C95.7841 5.41695 95.8037 5.45638 95.8037 5.53522C95.8037 5.61407 95.7841 5.65349 95.745 5.65349C95.3146 5.65349 95.0015 5.69291 94.8059 5.77176C94.6102 5.83746 94.4733 5.96887 94.395 6.16598C94.3298 6.34995 94.2972 6.63905 94.2972 7.03327V12.9664Z" fill="#958CB7"/>
<path d="M108.089 12.0202C108.089 11.9808 108.121 11.9611 108.187 11.9611C108.265 11.9611 108.304 11.9808 108.304 12.0202C108.213 12.9664 108.167 13.7417 108.167 14.3461C108.167 14.4513 108.147 14.5301 108.108 14.5827C108.069 14.6221 107.991 14.6418 107.873 14.6418H100.713C100.686 14.6418 100.673 14.6024 100.673 14.5235C100.673 14.4447 100.686 14.4053 100.713 14.4053C101.143 14.4053 101.456 14.3724 101.652 14.3067C101.847 14.241 101.978 14.1162 102.043 13.9322C102.121 13.7351 102.16 13.4394 102.16 13.0452V7.01356C102.16 6.61934 102.121 6.33024 102.043 6.14627C101.978 5.9623 101.847 5.83746 101.652 5.77176C101.456 5.69291 101.143 5.65349 100.713 5.65349C100.686 5.65349 100.673 5.61407 100.673 5.53522C100.673 5.45638 100.686 5.41695 100.713 5.41695H107.521C107.652 5.41695 107.717 5.46952 107.717 5.57464L107.737 6.79674C107.75 7.04641 107.756 7.36179 107.756 7.74288C107.756 7.7823 107.717 7.80201 107.639 7.80201C107.56 7.80201 107.521 7.7823 107.521 7.74288C107.469 7.1384 107.247 6.64562 106.856 6.26454C106.478 5.87031 106.008 5.6732 105.447 5.6732H104.9C104.443 5.6732 104.11 5.71262 103.902 5.79147C103.693 5.85717 103.549 5.98201 103.471 6.16598C103.393 6.34995 103.354 6.63905 103.354 7.03327V9.73371C104.619 9.72057 105.48 9.68772 105.936 9.63515C106.406 9.56945 106.673 9.5366 106.739 9.5366C106.804 9.5366 106.836 9.67458 106.836 9.95053C106.836 10.2528 106.804 10.4039 106.739 10.4039C106.686 10.4039 106.426 10.371 105.956 10.3053C105.486 10.2265 104.619 10.1739 103.354 10.1476V12.9664C103.354 13.3474 103.393 13.6365 103.471 13.8336C103.549 14.0176 103.693 14.149 103.902 14.2279C104.123 14.2936 104.456 14.3264 104.9 14.3264H105.839C106.36 14.3264 106.83 14.1162 107.247 13.6957C107.665 13.262 107.945 12.7035 108.089 12.0202Z" fill="#958CB7"/>
<path d="M119.669 5.41695C119.708 5.41695 119.728 5.45638 119.728 5.53522C119.728 5.61407 119.708 5.65349 119.669 5.65349C119.186 5.65349 118.841 5.79804 118.632 6.08714C118.423 6.37623 118.319 6.86901 118.319 7.56548V14.8586C118.319 14.8849 118.286 14.9046 118.221 14.9178C118.156 14.9309 118.11 14.9243 118.084 14.898L111.667 7.03327C111.601 6.96757 111.517 6.86901 111.412 6.73761V12.4933C111.412 13.1897 111.51 13.6825 111.706 13.9716C111.901 14.2607 112.24 14.4053 112.723 14.4053C112.749 14.4053 112.762 14.4447 112.762 14.5235C112.762 14.6024 112.749 14.6418 112.723 14.6418C112.436 14.6418 112.214 14.6352 112.058 14.6221L111.236 14.6024L110.395 14.6221C110.225 14.6352 109.99 14.6418 109.69 14.6418C109.664 14.6418 109.651 14.6024 109.651 14.5235C109.651 14.4447 109.664 14.4053 109.69 14.4053C110.173 14.4053 110.512 14.2607 110.708 13.9716C110.917 13.6825 111.021 13.1897 111.021 12.4933V6.34338C110.76 6.09371 110.525 5.9163 110.317 5.81118C110.108 5.70605 109.899 5.65349 109.69 5.65349C109.664 5.65349 109.651 5.61407 109.651 5.53522C109.651 5.45638 109.664 5.41695 109.69 5.41695L110.786 5.43666L111.823 5.41695C111.914 5.41695 111.986 5.44324 112.038 5.4958C112.104 5.54836 112.195 5.66006 112.312 5.83089C112.417 6.00172 112.56 6.2054 112.743 6.44194L117.928 12.8875V7.56548C117.928 6.86901 117.83 6.37623 117.634 6.08714C117.451 5.79804 117.119 5.65349 116.636 5.65349C116.597 5.65349 116.577 5.61407 116.577 5.53522C116.577 5.45638 116.597 5.41695 116.636 5.41695L117.301 5.43666C117.641 5.46295 117.914 5.47609 118.123 5.47609C118.332 5.47609 118.619 5.46295 118.984 5.43666L119.669 5.41695Z" fill="#958CB7"/>
<path d="M32.4035 19.0119C32.0373 19.0119 31.8542 19.2088 31.8542 19.6026V20.0301H32.7902V20.2721H31.8598V22.9668H31.5796V20.2721H31.0415V20.0301H31.5796V19.5801C31.5796 19.3326 31.6506 19.1357 31.7925 18.9894C31.9345 18.8431 32.1344 18.77 32.3923 18.77C32.5044 18.77 32.6109 18.7869 32.7117 18.8206C32.8164 18.8506 32.9023 18.8975 32.9696 18.9613L32.8575 19.175C32.7379 19.0663 32.5866 19.0119 32.4035 19.0119Z" fill="#958CB7"/>
<path d="M34.2943 20.0076C34.6568 20.0076 34.9351 20.1014 35.1294 20.2889C35.3237 20.4727 35.4209 20.7446 35.4209 21.1047V22.9668H35.1518V22.4436C35.0584 22.6161 34.9221 22.7511 34.7427 22.8486C34.5633 22.9424 34.3485 22.9893 34.0981 22.9893C33.7731 22.9893 33.5152 22.9124 33.3247 22.7586C33.1379 22.6048 33.0444 22.4023 33.0444 22.151C33.0444 21.9073 33.1304 21.7104 33.3023 21.5603C33.4779 21.4066 33.7562 21.3297 34.1374 21.3297H35.1406V21.0934C35.1406 20.8196 35.0659 20.6115 34.9164 20.469C34.7707 20.3264 34.5559 20.2552 34.2719 20.2552C34.0776 20.2552 33.8908 20.2889 33.7114 20.3564C33.5358 20.424 33.3863 20.514 33.263 20.6265L33.1229 20.424C33.2686 20.2927 33.4442 20.1914 33.6498 20.1202C33.8553 20.0452 34.0701 20.0076 34.2943 20.0076ZM34.1374 22.7586C34.3803 22.7586 34.5858 22.7024 34.7539 22.5898C34.9258 22.4773 35.0547 22.3142 35.1406 22.1004V21.5491H34.143C33.8553 21.5491 33.646 21.6016 33.5152 21.7066C33.3882 21.8116 33.3247 21.956 33.3247 22.1398C33.3247 22.3311 33.3957 22.483 33.5377 22.5955C33.6796 22.7042 33.8796 22.7586 34.1374 22.7586Z" fill="#958CB7"/>
<path d="M40.2186 20.0076C40.5811 20.0076 40.8651 20.1145 41.0706 20.3283C41.2798 20.5421 41.3844 20.8496 41.3844 21.2509V22.9668H41.1042V21.2734C41.1042 20.9434 41.0239 20.6921 40.8632 20.5196C40.7025 20.3471 40.4783 20.2608 40.1906 20.2608C39.8618 20.2608 39.6002 20.3639 39.4059 20.5702C39.2154 20.7765 39.1201 21.054 39.1201 21.4028V22.9668H38.8399V21.2734C38.8399 20.9434 38.7595 20.6921 38.5989 20.5196C38.4382 20.3471 38.214 20.2608 37.9263 20.2608C37.5975 20.2608 37.3359 20.3639 37.1416 20.5702C36.951 20.7765 36.8558 21.054 36.8558 21.4028V22.9668H36.5755V20.0301H36.8445V20.6602C36.9417 20.454 37.0856 20.2946 37.2761 20.182C37.4704 20.0658 37.7002 20.0076 37.9655 20.0076C38.2308 20.0076 38.455 20.0677 38.6381 20.1877C38.8249 20.3077 38.9576 20.484 39.036 20.7165C39.1332 20.499 39.2845 20.3264 39.49 20.1989C39.6993 20.0714 39.9421 20.0076 40.2186 20.0076Z" fill="#958CB7"/>
<path d="M42.5416 20.0301H42.8218V22.9668H42.5416V20.0301ZM42.6817 19.3157C42.6182 19.3157 42.564 19.2951 42.5192 19.2538C42.4743 19.2088 42.4519 19.1544 42.4519 19.0907C42.4519 19.0269 42.4743 18.9725 42.5192 18.9275C42.564 18.8825 42.6182 18.86 42.6817 18.86C42.7452 18.86 42.7994 18.8825 42.8442 18.9275C42.8891 18.9688 42.9115 19.0213 42.9115 19.085C42.9115 19.1488 42.8891 19.2032 42.8442 19.2482C42.7994 19.2932 42.7452 19.3157 42.6817 19.3157Z" fill="#958CB7"/>
<path d="M44.003 18.7925H44.2832V22.9668H44.003V18.7925Z" fill="#958CB7"/>
<path d="M47.8128 20.0301L46.3107 23.3662C46.1986 23.625 46.0679 23.8088 45.9184 23.9175C45.7727 24.0263 45.5989 24.0807 45.3971 24.0807C45.2626 24.0807 45.1356 24.0582 45.016 24.0132C44.9002 23.9681 44.8012 23.9025 44.719 23.8163L44.8591 23.6025C45.0085 23.7562 45.1898 23.8331 45.4027 23.8331C45.5447 23.8331 45.6662 23.7938 45.7671 23.715C45.8679 23.6362 45.9614 23.5012 46.0473 23.3099L46.2042 22.9555L44.8871 20.0301H45.1842L46.3556 22.6574L47.527 20.0301H47.8128Z" fill="#958CB7"/>
<path d="M51.0084 22.9893C50.7319 22.9893 50.4816 22.9255 50.2574 22.798C50.0369 22.6705 49.8632 22.4942 49.7361 22.2692C49.6091 22.0404 49.5456 21.7835 49.5456 21.4985C49.5456 21.2134 49.6091 20.9584 49.7361 20.7334C49.8632 20.5046 50.0369 20.3264 50.2574 20.1989C50.4816 20.0714 50.7319 20.0076 51.0084 20.0076C51.2849 20.0076 51.5334 20.0714 51.7539 20.1989C51.9781 20.3264 52.1537 20.5046 52.2807 20.7334C52.4078 20.9584 52.4713 21.2134 52.4713 21.4985C52.4713 21.7835 52.4078 22.0404 52.2807 22.2692C52.1537 22.4942 51.9781 22.6705 51.7539 22.798C51.5334 22.9255 51.2849 22.9893 51.0084 22.9893ZM51.0084 22.7361C51.2326 22.7361 51.4325 22.6836 51.6082 22.5786C51.7875 22.4736 51.9276 22.3273 52.0285 22.1398C52.1331 21.9523 52.1855 21.7385 52.1855 21.4985C52.1855 21.2584 52.1331 21.0447 52.0285 20.8571C51.9276 20.6696 51.7875 20.5233 51.6082 20.4183C51.4325 20.3133 51.2326 20.2608 51.0084 20.2608C50.7842 20.2608 50.5825 20.3133 50.4031 20.4183C50.2275 20.5233 50.0874 20.6696 49.9828 20.8571C49.8819 21.0447 49.8314 21.2584 49.8314 21.4985C49.8314 21.7385 49.8819 21.9523 49.9828 22.1398C50.0874 22.3273 50.2275 22.4736 50.4031 22.5786C50.5825 22.6836 50.7842 22.7361 51.0084 22.7361Z" fill="#958CB7"/>
<path d="M54.2207 19.0119C53.8545 19.0119 53.6714 19.2088 53.6714 19.6026V20.0301H54.6074V20.2721H53.677V22.9668H53.3967V20.2721H52.8587V20.0301H53.3967V19.5801C53.3967 19.3326 53.4677 19.1357 53.6097 18.9894C53.7517 18.8431 53.9516 18.77 54.2094 18.77C54.3215 18.77 54.428 18.7869 54.5289 18.8206C54.6335 18.8506 54.7195 18.8975 54.7867 18.9613L54.6746 19.175C54.5551 19.0663 54.4037 19.0119 54.2207 19.0119Z" fill="#958CB7"/>
<path d="M56.0597 19.0119C55.6936 19.0119 55.5105 19.2088 55.5105 19.6026V20.0301H56.4465V20.2721H55.5161V22.9668H55.2358V20.2721H54.6978V20.0301H55.2358V19.5801C55.2358 19.3326 55.3068 19.1357 55.4488 18.9894C55.5908 18.8431 55.7907 18.77 56.0485 18.77C56.1606 18.77 56.2671 18.7869 56.368 18.8206C56.4726 18.8506 56.5586 18.8975 56.6258 18.9613L56.5137 19.175C56.3942 19.0663 56.2428 19.0119 56.0597 19.0119ZM57.4665 20.0301H57.7468V22.9668H57.4665V20.0301ZM57.6067 19.3157C57.5431 19.3157 57.489 19.2951 57.4441 19.2538C57.3993 19.2088 57.3769 19.1544 57.3769 19.0907C57.3769 19.0269 57.3993 18.9725 57.4441 18.9275C57.489 18.8825 57.5431 18.86 57.6067 18.86C57.6702 18.86 57.7244 18.8825 57.7692 18.9275C57.814 18.9688 57.8365 19.0213 57.8365 19.085C57.8365 19.1488 57.814 19.2032 57.7692 19.2482C57.7244 19.2932 57.6702 19.3157 57.6067 19.3157Z" fill="#958CB7"/>
<path d="M60.0893 22.9893C59.8053 22.9893 59.5512 22.9255 59.327 22.798C59.1028 22.6705 58.9272 22.4942 58.8002 22.2692C58.6731 22.0404 58.6096 21.7835 58.6096 21.4985C58.6096 21.2097 58.6731 20.9528 58.8002 20.7277C58.9272 20.499 59.1028 20.3227 59.327 20.1989C59.5512 20.0714 59.8053 20.0076 60.0893 20.0076C60.3247 20.0076 60.5377 20.0545 60.7282 20.1483C60.9225 20.2383 61.0795 20.3714 61.199 20.5477L60.9917 20.6996C60.887 20.5533 60.7563 20.4446 60.5993 20.3733C60.4461 20.2983 60.2761 20.2608 60.0893 20.2608C59.8614 20.2608 59.6559 20.3133 59.4728 20.4183C59.2934 20.5196 59.1514 20.664 59.0468 20.8515C58.9459 21.039 58.8955 21.2547 58.8955 21.4985C58.8955 21.7422 58.9459 21.9579 59.0468 22.1454C59.1514 22.3329 59.2934 22.4792 59.4728 22.5842C59.6559 22.6855 59.8614 22.7361 60.0893 22.7361C60.2761 22.7361 60.4461 22.7005 60.5993 22.6292C60.7563 22.5542 60.887 22.4436 60.9917 22.2973L61.199 22.4492C61.0795 22.6255 60.9225 22.7605 60.7282 22.8543C60.5377 22.9443 60.3247 22.9893 60.0893 22.9893Z" fill="#958CB7"/>
<path d="M64.4605 21.566H61.9439C61.9514 21.7947 62.0093 21.9991 62.1177 22.1792C62.226 22.3554 62.3718 22.4923 62.5548 22.5898C62.7417 22.6874 62.9509 22.7361 63.1826 22.7361C63.3731 22.7361 63.5488 22.7024 63.7094 22.6349C63.8738 22.5636 64.0102 22.4605 64.1186 22.3254L64.2811 22.5111C64.1541 22.6649 63.9934 22.783 63.7991 22.8655C63.6085 22.948 63.4012 22.9893 63.177 22.9893C62.8855 22.9893 62.6258 22.9255 62.3979 22.798C62.17 22.6705 61.9906 22.4942 61.8598 22.2692C61.7328 22.0442 61.6693 21.7872 61.6693 21.4985C61.6693 21.2134 61.7291 20.9584 61.8486 20.7334C61.9719 20.5046 62.1401 20.3264 62.3531 20.1989C62.5661 20.0714 62.8052 20.0076 63.0705 20.0076C63.3358 20.0076 63.573 20.0714 63.7823 20.1989C63.9953 20.3227 64.1616 20.4971 64.2811 20.7221C64.4044 20.9471 64.4661 21.2022 64.4661 21.4872L64.4605 21.566ZM63.0705 20.2552C62.865 20.2552 62.68 20.3021 62.5156 20.3958C62.3512 20.4858 62.2186 20.6152 62.1177 20.784C62.0205 20.949 61.9645 21.1365 61.9495 21.3466H64.1914C64.1802 21.1365 64.1242 20.949 64.0233 20.784C63.9224 20.619 63.7898 20.4896 63.6254 20.3958C63.461 20.3021 63.276 20.2552 63.0705 20.2552Z" fill="#958CB7"/>
<path d="M69.6198 23.023L69.0537 22.4267C68.893 22.6142 68.7025 22.7567 68.482 22.8543C68.2616 22.948 68.0168 22.9949 67.7478 22.9949C67.5012 22.9949 67.2807 22.9536 67.0864 22.8711C66.8921 22.7886 66.7408 22.6724 66.6324 22.5223C66.5241 22.3723 66.4699 22.2017 66.4699 22.0104C66.4699 21.7816 66.5465 21.5735 66.6997 21.3859C66.8529 21.1947 67.1144 20.9903 67.4844 20.7727L67.4788 20.7615C67.2845 20.559 67.1518 20.3902 67.0808 20.2552C67.0098 20.1164 66.9743 19.9683 66.9743 19.8107C66.9743 19.567 67.0584 19.3719 67.2265 19.2257C67.3947 19.0794 67.6207 19.0063 67.9047 19.0063C68.17 19.0063 68.3793 19.0738 68.5325 19.2088C68.6894 19.3401 68.7679 19.522 68.7679 19.7545C68.7679 19.9495 68.7006 20.1258 68.5661 20.2833C68.4353 20.4371 68.2036 20.6115 67.8711 20.8065L69.0313 22.0385C69.1583 21.8135 69.2517 21.5472 69.3115 21.2397L69.5413 21.3128C69.4666 21.6766 69.3545 21.9785 69.205 22.2186L69.7879 22.8374L69.6198 23.023ZM67.2378 19.8107C67.2378 19.9345 67.2695 20.0545 67.333 20.1708C67.3966 20.2833 67.5217 20.439 67.7086 20.6377C68.0187 20.4577 68.2317 20.3058 68.3475 20.182C68.4633 20.0545 68.5213 19.9139 68.5213 19.7601C68.5213 19.5951 68.4671 19.4657 68.3587 19.3719C68.2504 19.2744 68.099 19.2257 67.9047 19.2257C67.6955 19.2257 67.5311 19.2801 67.4115 19.3888C67.2957 19.4938 67.2378 19.6345 67.2378 19.8107ZM67.759 22.7586C68.2373 22.7586 68.6128 22.588 68.8856 22.2467L67.6469 20.9359C67.3031 21.1384 67.0659 21.3166 66.9351 21.4703C66.8081 21.6241 66.7445 21.7966 66.7445 21.9879C66.7445 22.2167 66.8379 22.4023 67.0248 22.5448C67.2153 22.6874 67.4601 22.7586 67.759 22.7586Z" fill="#958CB7"/>
<path d="M72.7647 19.0119C72.3985 19.0119 72.2154 19.2088 72.2154 19.6026V20.0301H73.1514V20.2721H72.221V22.9668H71.9408V20.2721H71.4027V20.0301H71.9408V19.5801C71.9408 19.3326 72.0118 19.1357 72.1538 18.9894C72.2958 18.8431 72.4957 18.77 72.7535 18.77C72.8656 18.77 72.9721 18.7869 73.073 18.8206C73.1776 18.8506 73.2635 18.8975 73.3308 18.9613L73.2187 19.175C73.0991 19.0663 72.9478 19.0119 72.7647 19.0119ZM74.1715 20.0301H74.4518V22.9668H74.1715V20.0301ZM74.3116 19.3157C74.2481 19.3157 74.1939 19.2951 74.1491 19.2538C74.1043 19.2088 74.0818 19.1544 74.0818 19.0907C74.0818 19.0269 74.1043 18.9725 74.1491 18.9275C74.1939 18.8825 74.2481 18.86 74.3116 18.86C74.3752 18.86 74.4293 18.8825 74.4742 18.9275C74.519 18.9688 74.5414 19.0213 74.5414 19.085C74.5414 19.1488 74.519 19.2032 74.4742 19.2482C74.4293 19.2932 74.3752 19.3157 74.3116 19.3157Z" fill="#958CB7"/>
<path d="M77.0633 20.0076C77.4295 20.0076 77.7191 20.1145 77.932 20.3283C78.145 20.5421 78.2515 20.8496 78.2515 21.2509V22.9668H77.9713V21.2734C77.9713 20.9434 77.8872 20.6921 77.7191 20.5196C77.5547 20.3471 77.323 20.2608 77.0241 20.2608C76.6803 20.2608 76.4094 20.3639 76.2114 20.5702C76.0133 20.7765 75.9143 21.054 75.9143 21.4028V22.9668H75.6341V20.0301H75.9031V20.6659C76.004 20.4596 76.1535 20.2983 76.3515 20.182C76.5533 20.0658 76.7905 20.0076 77.0633 20.0076Z" fill="#958CB7"/>
<path d="M80.3917 20.0076C80.7542 20.0076 81.0325 20.1014 81.2269 20.2889C81.4212 20.4727 81.5183 20.7446 81.5183 21.1047V22.9668H81.2493V22.4436C81.1559 22.6161 81.0195 22.7511 80.8401 22.8486C80.6608 22.9424 80.4459 22.9893 80.1956 22.9893C79.8705 22.9893 79.6127 22.9124 79.4221 22.7586C79.2353 22.6048 79.1419 22.4023 79.1419 22.151C79.1419 21.9073 79.2278 21.7104 79.3997 21.5603C79.5753 21.4066 79.8537 21.3297 80.2348 21.3297H81.2381V21.0934C81.2381 20.8196 81.1633 20.6115 81.0139 20.469C80.8681 20.3264 80.6533 20.2552 80.3693 20.2552C80.175 20.2552 79.9882 20.2889 79.8088 20.3564C79.6332 20.424 79.4837 20.514 79.3604 20.6265L79.2203 20.424C79.366 20.2927 79.5417 20.1914 79.7472 20.1202C79.9527 20.0452 80.1675 20.0076 80.3917 20.0076ZM80.2348 22.7586C80.4777 22.7586 80.6832 22.7024 80.8513 22.5898C81.0232 22.4773 81.1521 22.3142 81.2381 22.1004V21.5491H80.2404C79.9527 21.5491 79.7434 21.6016 79.6127 21.7066C79.4856 21.8116 79.4221 21.956 79.4221 22.1398C79.4221 22.3311 79.4931 22.483 79.6351 22.5955C79.7771 22.7042 79.977 22.7586 80.2348 22.7586Z" fill="#958CB7"/>
<path d="M84.1022 20.0076C84.4683 20.0076 84.7579 20.1145 84.9709 20.3283C85.1839 20.5421 85.2904 20.8496 85.2904 21.2509V22.9668H85.0101V21.2734C85.0101 20.9434 84.9261 20.6921 84.7579 20.5196C84.5935 20.3471 84.3618 20.2608 84.0629 20.2608C83.7192 20.2608 83.4483 20.3639 83.2502 20.5702C83.0522 20.7765 82.9532 21.054 82.9532 21.4028V22.9668H82.6729V20.0301H82.942V20.6659C83.0429 20.4596 83.1923 20.2983 83.3904 20.182C83.5921 20.0658 83.8294 20.0076 84.1022 20.0076Z" fill="#958CB7"/>
<path d="M87.6098 22.9893C87.3258 22.9893 87.0718 22.9255 86.8476 22.798C86.6234 22.6705 86.4477 22.4942 86.3207 22.2692C86.1937 22.0404 86.1301 21.7835 86.1301 21.4985C86.1301 21.2097 86.1937 20.9528 86.3207 20.7277C86.4477 20.499 86.6234 20.3227 86.8476 20.1989C87.0718 20.0714 87.3258 20.0076 87.6098 20.0076C87.8452 20.0076 88.0582 20.0545 88.2488 20.1483C88.4431 20.2383 88.6 20.3714 88.7196 20.5477L88.5122 20.6996C88.4076 20.5533 88.2768 20.4446 88.1199 20.3733C87.9667 20.2983 87.7966 20.2608 87.6098 20.2608C87.3819 20.2608 87.1764 20.3133 86.9933 20.4183C86.8139 20.5196 86.6719 20.664 86.5673 20.8515C86.4664 21.039 86.416 21.2547 86.416 21.4985C86.416 21.7422 86.4664 21.9579 86.5673 22.1454C86.6719 22.3329 86.8139 22.4792 86.9933 22.5842C87.1764 22.6855 87.3819 22.7361 87.6098 22.7361C87.7966 22.7361 87.9667 22.7005 88.1199 22.6292C88.2768 22.5542 88.4076 22.4436 88.5122 22.2973L88.7196 22.4492C88.6 22.6255 88.4431 22.7605 88.2488 22.8543C88.0582 22.9443 87.8452 22.9893 87.6098 22.9893Z" fill="#958CB7"/>
<path d="M91.981 21.566H89.4644C89.4719 21.7947 89.5298 21.9991 89.6382 22.1792C89.7465 22.3554 89.8923 22.4923 90.0754 22.5898C90.2622 22.6874 90.4714 22.7361 90.7031 22.7361C90.8937 22.7361 91.0693 22.7024 91.23 22.6349C91.3944 22.5636 91.5307 22.4605 91.6391 22.3254L91.8016 22.5111C91.6746 22.6649 91.5139 22.783 91.3196 22.8655C91.1291 22.948 90.9217 22.9893 90.6975 22.9893C90.406 22.9893 90.1464 22.9255 89.9184 22.798C89.6905 22.6705 89.5111 22.4942 89.3804 22.2692C89.2533 22.0442 89.1898 21.7872 89.1898 21.4985C89.1898 21.2134 89.2496 20.9584 89.3692 20.7334C89.4925 20.5046 89.6606 20.3264 89.8736 20.1989C90.0866 20.0714 90.3257 20.0076 90.591 20.0076C90.8563 20.0076 91.0936 20.0714 91.3028 20.1989C91.5158 20.3227 91.6821 20.4971 91.8016 20.7221C91.925 20.9471 91.9866 21.2022 91.9866 21.4872L91.981 21.566ZM90.591 20.2552C90.3855 20.2552 90.2005 20.3021 90.0361 20.3958C89.8717 20.4858 89.7391 20.6152 89.6382 20.784C89.541 20.949 89.485 21.1365 89.47 21.3466H91.712C91.7008 21.1365 91.6447 20.949 91.5438 20.784C91.4429 20.619 91.3103 20.4896 91.1459 20.3958C90.9815 20.3021 90.7965 20.2552 90.591 20.2552Z" fill="#958CB7"/>
<path d="M95.7615 20.0076C96.0343 20.0076 96.2809 20.0714 96.5014 20.1989C96.7218 20.3227 96.8937 20.499 97.017 20.7277C97.1441 20.9528 97.2076 21.2097 97.2076 21.4985C97.2076 21.7872 97.1441 22.0442 97.017 22.2692C96.8937 22.4942 96.7218 22.6705 96.5014 22.798C96.2809 22.9255 96.0343 22.9893 95.7615 22.9893C95.5 22.9893 95.2627 22.9274 95.0497 22.8036C94.8405 22.6761 94.6779 22.4998 94.5621 22.2748V22.9668H94.2931V18.7925H94.5733V20.6996C94.6892 20.4821 94.8517 20.3133 95.0609 20.1933C95.2702 20.0695 95.5037 20.0076 95.7615 20.0076ZM95.7447 22.7361C95.9689 22.7361 96.1707 22.6836 96.35 22.5786C96.5294 22.4736 96.6695 22.3273 96.7704 22.1398C96.875 21.9523 96.9273 21.7385 96.9273 21.4985C96.9273 21.2584 96.875 21.0447 96.7704 20.8571C96.6695 20.6696 96.5294 20.5233 96.35 20.4183C96.1707 20.3133 95.9689 20.2608 95.7447 20.2608C95.5205 20.2608 95.3188 20.3133 95.1394 20.4183C94.9638 20.5233 94.8237 20.6696 94.719 20.8571C94.6182 21.0447 94.5677 21.2584 94.5677 21.4985C94.5677 21.7385 94.6182 21.9523 94.719 22.1398C94.8237 22.3273 94.9638 22.4736 95.1394 22.5786C95.3188 22.6836 95.5205 22.7361 95.7447 22.7361Z" fill="#958CB7"/>
<path d="M99.2186 22.9893C98.9421 22.9893 98.6918 22.9255 98.4676 22.798C98.2471 22.6705 98.0734 22.4942 97.9463 22.2692C97.8193 22.0404 97.7558 21.7835 97.7558 21.4985C97.7558 21.2134 97.8193 20.9584 97.9463 20.7334C98.0734 20.5046 98.2471 20.3264 98.4676 20.1989C98.6918 20.0714 98.9421 20.0076 99.2186 20.0076C99.4951 20.0076 99.7436 20.0714 99.9641 20.1989C100.188 20.3264 100.364 20.5046 100.491 20.7334C100.618 20.9584 100.681 21.2134 100.681 21.4985C100.681 21.7835 100.618 22.0404 100.491 22.2692C100.364 22.4942 100.188 22.6705 99.9641 22.798C99.7436 22.9255 99.4951 22.9893 99.2186 22.9893ZM99.2186 22.7361C99.4428 22.7361 99.6427 22.6836 99.8183 22.5786C99.9977 22.4736 100.138 22.3273 100.239 22.1398C100.343 21.9523 100.396 21.7385 100.396 21.4985C100.396 21.2584 100.343 21.0447 100.239 20.8571C100.138 20.6696 99.9977 20.5233 99.8183 20.4183C99.6427 20.3133 99.4428 20.2608 99.2186 20.2608C98.9944 20.2608 98.7926 20.3133 98.6133 20.4183C98.4377 20.5233 98.2976 20.6696 98.1929 20.8571C98.092 21.0447 98.0416 21.2584 98.0416 21.4985C98.0416 21.7385 98.092 21.9523 98.1929 22.1398C98.2976 22.3273 98.4377 22.4736 98.6133 22.5786C98.7926 22.6836 98.9944 22.7361 99.2186 22.7361Z" fill="#958CB7"/>
<path d="M104.112 20.0301V22.9668H103.843V22.3367C103.746 22.543 103.602 22.7042 103.412 22.8205C103.221 22.933 102.997 22.9893 102.739 22.9893C102.358 22.9893 102.059 22.8824 101.842 22.6686C101.626 22.4548 101.517 22.1473 101.517 21.746V20.0301H101.797V21.7235C101.797 22.0535 101.882 22.3048 102.05 22.4773C102.218 22.6499 102.455 22.7361 102.762 22.7361C103.09 22.7361 103.35 22.633 103.541 22.4267C103.735 22.2204 103.832 21.9429 103.832 21.5941V20.0301H104.112Z" fill="#958CB7"/>
<path d="M106.752 22.7811C106.681 22.8486 106.591 22.9011 106.483 22.9386C106.378 22.9724 106.268 22.9893 106.152 22.9893C105.898 22.9893 105.702 22.9199 105.564 22.7811C105.425 22.6386 105.356 22.4417 105.356 22.1904V20.2721H104.818V20.0301H105.356V19.3888H105.636V20.0301H106.567V20.2721H105.636V22.1623C105.636 22.3536 105.681 22.4998 105.771 22.6011C105.864 22.6986 106.001 22.7474 106.18 22.7474C106.363 22.7474 106.515 22.693 106.634 22.5842L106.752 22.7811Z" fill="#958CB7"/>
<path d="M107.533 20.0301H107.814V22.9668H107.533V20.0301ZM107.673 19.3157C107.61 19.3157 107.556 19.2951 107.511 19.2538C107.466 19.2088 107.444 19.1544 107.444 19.0907C107.444 19.0269 107.466 18.9725 107.511 18.9275C107.556 18.8825 107.61 18.86 107.673 18.86C107.737 18.86 107.791 18.8825 107.836 18.9275C107.881 18.9688 107.903 19.0213 107.903 19.085C107.903 19.1488 107.881 19.2032 107.836 19.2482C107.791 19.2932 107.737 19.3157 107.673 19.3157Z" fill="#958CB7"/>
<path d="M111.595 20.0301V24.0582H111.315V22.2861C111.196 22.5073 111.031 22.6799 110.822 22.8036C110.616 22.9274 110.383 22.9893 110.121 22.9893C109.849 22.9893 109.602 22.9274 109.381 22.8036C109.161 22.6761 108.987 22.4998 108.86 22.2748C108.737 22.046 108.675 21.7872 108.675 21.4985C108.675 21.2097 108.737 20.9528 108.86 20.7277C108.987 20.5027 109.161 20.3264 109.381 20.1989C109.602 20.0714 109.849 20.0076 110.121 20.0076C110.387 20.0076 110.624 20.0695 110.833 20.1933C111.042 20.3171 111.205 20.4933 111.321 20.7221V20.0301H111.595ZM110.138 22.7361C110.362 22.7361 110.562 22.6836 110.738 22.5786C110.917 22.4736 111.057 22.3273 111.158 22.1398C111.263 21.9523 111.315 21.7385 111.315 21.4985C111.315 21.2584 111.263 21.0447 111.158 20.8571C111.057 20.6696 110.917 20.5233 110.738 20.4183C110.562 20.3133 110.362 20.2608 110.138 20.2608C109.914 20.2608 109.712 20.3133 109.533 20.4183C109.357 20.5233 109.217 20.6696 109.112 20.8571C109.012 21.0447 108.961 21.2584 108.961 21.4985C108.961 21.7385 109.012 21.9523 109.112 22.1398C109.217 22.3273 109.357 22.4736 109.533 22.5786C109.712 22.6836 109.914 22.7361 110.138 22.7361Z" fill="#958CB7"/>
<path d="M115.338 20.0301V22.9668H115.069V22.3367C114.972 22.543 114.828 22.7042 114.638 22.8205C114.447 22.933 114.223 22.9893 113.965 22.9893C113.584 22.9893 113.285 22.8824 113.068 22.6686C112.852 22.4548 112.743 22.1473 112.743 21.746V20.0301H113.024V21.7235C113.024 22.0535 113.108 22.3048 113.276 22.4773C113.444 22.6499 113.681 22.7361 113.988 22.7361C114.316 22.7361 114.576 22.633 114.767 22.4267C114.961 22.2204 115.058 21.9429 115.058 21.5941V20.0301H115.338Z" fill="#958CB7"/>
<path d="M118.998 21.566H116.481C116.489 21.7947 116.547 21.9991 116.655 22.1792C116.764 22.3554 116.909 22.4923 117.092 22.5898C117.279 22.6874 117.488 22.7361 117.72 22.7361C117.911 22.7361 118.086 22.7024 118.247 22.6349C118.411 22.5636 118.548 22.4605 118.656 22.3254L118.819 22.5111C118.692 22.6649 118.531 22.783 118.337 22.8655C118.146 22.948 117.939 22.9893 117.714 22.9893C117.423 22.9893 117.163 22.9255 116.935 22.798C116.707 22.6705 116.528 22.4942 116.397 22.2692C116.27 22.0442 116.207 21.7872 116.207 21.4985C116.207 21.2134 116.267 20.9584 116.386 20.7334C116.509 20.5046 116.678 20.3264 116.891 20.1989C117.104 20.0714 117.343 20.0076 117.608 20.0076C117.873 20.0076 118.111 20.0714 118.32 20.1989C118.533 20.3227 118.699 20.4971 118.819 20.7221C118.942 20.9471 119.004 21.2022 119.004 21.4872L118.998 21.566ZM117.608 20.2552C117.402 20.2552 117.218 20.3021 117.053 20.3958C116.889 20.4858 116.756 20.6152 116.655 20.784C116.558 20.949 116.502 21.1365 116.487 21.3466H118.729C118.718 21.1365 118.662 20.949 118.561 20.784C118.46 20.619 118.327 20.4896 118.163 20.3958C117.998 20.3021 117.813 20.2552 117.608 20.2552Z" fill="#958CB7"/>
</svg>
