<svg width="42" height="42" viewBox="0 0 42 42" fill="none" xmlns="http://www.w3.org/2000/svg">
<path fill-rule="evenodd" clip-rule="evenodd" d="M39.049 23.0044C38.1803 23.0044 37.4454 22.4698 37.1781 21.668V21.7349H34.3718C34.2382 23.7394 33.7036 25.6102 32.835 27.2807L35.1068 29.5524C35.2404 29.6861 35.374 29.7529 35.5745 29.7529H37.1781C37.4454 28.9511 38.1803 28.4165 39.049 28.4165C40.1849 28.4165 41.0535 29.2852 41.0535 30.421C41.0535 31.5569 40.1849 32.4256 39.049 32.4256C38.1803 32.4256 37.4454 31.891 37.1781 31.0892H35.5745C35.04 31.0892 34.5722 30.8888 34.1713 30.4879L32.1 28.4165C31.2982 29.6192 30.296 30.6883 29.1601 31.5569L31.0978 33.4946C31.4987 33.8287 31.6991 34.3632 31.6991 34.8978V37.1695C32.5009 37.4368 33.0355 38.1718 33.0355 39.0404C33.0355 40.1763 32.1668 41.0449 31.0309 41.0449C29.8951 41.0449 29.0264 40.1763 29.0264 39.0404C29.0264 38.1718 29.561 37.4368 30.3628 37.1695V34.8978C30.3628 34.6973 30.296 34.5637 30.1623 34.4301L28.0242 32.2919C26.1533 33.4946 24.0152 34.1628 21.6766 34.2964V37.1027C22.4784 37.37 23.0129 38.105 23.0129 38.9736C23.0129 40.1095 22.1443 40.9781 21.0084 40.9781C19.8725 40.9781 19.0039 40.1095 19.0039 38.9736C19.0039 38.105 19.5385 37.37 20.3403 37.1027V34.2964C18.0685 34.1628 15.8635 33.4278 13.9927 32.2919L11.8545 34.4301C11.7209 34.5637 11.6541 34.6973 11.6541 34.8978V37.1695C12.4559 37.4368 12.9904 38.1718 12.9904 39.0404C12.9904 40.1763 12.1218 41.0449 10.9859 41.0449C9.85002 41.0449 8.9814 40.1763 8.9814 39.0404C8.9814 38.1718 9.51593 37.4368 10.3177 37.1695V34.8978C10.3177 34.3632 10.5182 33.8955 10.9191 33.4278L12.8568 31.4901C11.7209 30.6215 10.7186 29.5524 9.91683 28.3497L7.84551 30.421C7.51143 30.8219 6.97689 31.0224 6.44236 31.0224H4.83875C4.57149 31.8242 3.8365 32.3587 2.96788 32.3587C1.832 32.3587 0.963379 31.4901 0.963379 30.3542C0.963379 29.2183 1.832 28.3497 2.96788 28.3497C3.8365 28.3497 4.57149 28.8843 4.83875 29.6861H6.44236C6.57599 29.6861 6.77644 29.6192 6.91008 29.4856L9.18185 27.2138C8.24641 25.5434 7.71188 23.6726 7.64506 21.668H4.83875C4.57149 22.4698 3.8365 23.0044 2.96788 23.0044C1.832 23.0044 0.963379 22.1358 0.963379 20.9999C0.963379 19.864 1.832 18.9954 2.96788 18.9954C3.8365 18.9954 4.57149 19.5299 4.83875 20.3317H7.71188C7.77869 18.3272 8.31323 16.4563 9.18185 14.7859L5.57374 11.1778C5.44011 11.0442 5.30647 10.9774 5.10602 10.9774H4.83875C4.57149 11.7792 3.8365 12.3137 2.96788 12.3137C1.832 12.3137 0.963379 11.4451 0.963379 10.3092C0.963379 9.1733 1.832 8.30468 2.96788 8.30468C3.8365 8.30468 4.57149 8.83922 4.83875 9.64102H5.10602C5.64056 9.64102 6.10827 9.84147 6.50918 10.2424L9.91683 13.65C10.7855 12.3137 11.9213 11.111 13.2577 10.1756L11.5873 8.50513C11.1864 8.17105 10.9859 7.63652 10.9859 7.10198V4.83021C10.1841 4.56294 9.64957 3.82796 9.64957 2.95934C9.64957 1.82345 10.5182 0.954834 11.6541 0.954834C12.79 0.954834 13.6586 1.82345 13.6586 2.95934C13.6586 3.82796 13.124 4.56294 12.3222 4.83021V7.10198C12.3222 7.23561 12.3891 7.43606 12.5227 7.50288L14.3936 9.37375C16.1308 8.3715 18.2021 7.77015 20.3403 7.63652V4.83021C19.5385 4.56294 19.0039 3.82796 19.0039 2.95934C19.0039 1.82345 19.8725 0.954834 21.0084 0.954834C22.1443 0.954834 23.0129 1.82345 23.0129 2.95934C23.0129 3.82796 22.4784 4.56294 21.6766 4.83021V7.63652C23.9484 7.77015 26.1533 8.50513 28.0242 9.64102L30.1623 7.5697C30.296 7.43606 30.3628 7.30243 30.3628 7.10198V4.83021C29.561 4.56294 29.0264 3.82796 29.0264 2.95934C29.0264 1.82345 29.8951 0.954834 31.0309 0.954834C32.1668 0.954834 33.0355 1.82345 33.0355 2.95934C33.0355 3.82796 32.5009 4.56294 31.6991 4.83021V7.10198C31.6991 7.63652 31.4987 8.10423 31.0978 8.50513L29.1601 10.4428C30.4296 11.4451 31.4987 12.6478 32.3673 14.0509L34.9063 11.5787C35.2404 11.1778 35.7749 10.9774 36.3095 10.9774H37.2449C37.5122 10.1756 38.2472 9.64102 39.1158 9.64102C40.2517 9.64102 41.1203 10.5096 41.1203 11.6455C41.1203 12.7814 40.2517 13.65 39.1158 13.65C38.2472 13.65 37.5122 13.1155 37.2449 12.3137H36.3095C36.109 12.3137 35.9754 12.3805 35.8418 12.5141L33.1023 15.2536C33.8373 16.7904 34.305 18.5277 34.3718 20.3317H37.1781C37.4454 19.5299 38.1803 18.9954 39.049 18.9954C40.1849 18.9954 41.0535 19.864 41.0535 20.9999C41.0535 22.1358 40.1849 23.0044 39.049 23.0044ZM39.7171 20.9999C39.7171 20.599 39.4499 20.3317 39.049 20.3317C38.6481 20.3317 38.3808 20.599 38.3808 20.9999C38.3808 21.4008 38.6481 21.668 39.049 21.668C39.4499 21.668 39.7171 21.4008 39.7171 20.9999ZM39.7171 11.6455C39.7171 11.2446 39.4499 10.9774 39.049 10.9774C38.6481 10.9774 38.3808 11.2446 38.3808 11.6455C38.3808 12.0464 38.6481 12.3137 39.049 12.3137C39.4499 12.3137 39.7171 12.0464 39.7171 11.6455ZM31.6991 2.95934C31.6991 2.55844 31.4318 2.29117 31.0309 2.29117C30.63 2.29117 30.3628 2.55844 30.3628 2.95934C30.3628 3.36024 30.63 3.62751 31.0309 3.62751C31.4318 3.62751 31.6991 3.36024 31.6991 2.95934ZM10.9859 2.95934C10.9859 3.36024 11.2532 3.62751 11.6541 3.62751C12.055 3.62751 12.3222 3.36024 12.3222 2.95934C12.3222 2.55844 12.055 2.29117 11.6541 2.29117C11.2532 2.29117 10.9859 2.55844 10.9859 2.95934ZM2.29972 10.3092C2.29972 10.7101 2.56698 10.9774 2.96788 10.9774C3.36878 10.9774 3.63605 10.7101 3.63605 10.3092C3.63605 9.90829 3.36878 9.64102 2.96788 9.64102C2.56698 9.64102 2.29972 9.90829 2.29972 10.3092ZM2.29972 20.9999C2.29972 21.4008 2.56698 21.668 2.96788 21.668C3.36878 21.668 3.63605 21.4008 3.63605 20.9999C3.63605 20.599 3.36878 20.3317 2.96788 20.3317C2.56698 20.3317 2.29972 20.599 2.29972 20.9999ZM2.29972 30.3542C2.29972 30.7551 2.56698 31.0224 2.96788 31.0224C3.36878 31.0224 3.63605 30.7551 3.63605 30.3542C3.63605 29.9533 3.36878 29.6861 2.96788 29.6861C2.56698 29.6861 2.29972 29.9533 2.29972 30.3542ZM10.3177 39.0404C10.3177 39.4413 10.585 39.7086 10.9859 39.7086C11.3868 39.7086 11.6541 39.4413 11.6541 39.0404C11.6541 38.6395 11.3868 38.3722 10.9859 38.3722C10.585 38.3722 10.3177 38.6395 10.3177 39.0404ZM31.6991 39.0404C31.6991 38.6395 31.4318 38.3722 31.0309 38.3722C30.63 38.3722 30.3628 38.6395 30.3628 39.0404C30.3628 39.4413 30.63 39.7086 31.0309 39.7086C31.4318 39.7086 31.6991 39.4413 31.6991 39.0404ZM39.7171 30.3542C39.7171 29.9533 39.4499 29.6861 39.049 29.6861C38.6481 29.6861 38.3808 29.9533 38.3808 30.3542C38.3808 30.7551 38.6481 31.0224 39.049 31.0224C39.4499 31.0224 39.7171 30.7551 39.7171 30.3542ZM31.4318 14.9864C30.63 13.5832 29.4942 12.3805 28.2246 11.3783L27.2892 12.3805C28.5587 13.3159 29.6278 14.5186 30.4296 15.9886L31.4318 14.9864ZM26.0865 11.6455L27.0888 10.6433C25.4851 9.70784 23.6143 9.10649 21.6766 9.03967V10.376C23.2802 10.5096 24.7502 10.9105 26.0865 11.6455ZM21.6766 2.95934C21.6766 2.55844 21.4093 2.29117 21.0084 2.29117C20.6075 2.29117 20.3403 2.55844 20.3403 2.95934C20.3403 3.36024 20.6075 3.62751 21.0084 3.62751C21.4093 3.62751 21.6766 3.36024 21.6766 2.95934ZM20.3403 10.376V9.03967C18.5362 9.10649 16.8658 9.5742 15.329 10.4428L16.3312 11.4451C17.6008 10.8437 18.9371 10.4428 20.3403 10.376ZM15.1285 12.0464L14.1931 11.111C12.8568 12.0464 11.7209 13.1823 10.7855 14.5186L11.7877 15.5209C12.6563 14.1177 13.7922 12.915 15.1285 12.0464ZM11.1864 16.7904L10.1841 15.7882C9.51593 17.1913 9.11503 18.7281 9.04821 20.3317H10.3846C10.4514 19.0622 10.7186 17.8595 11.1864 16.7904ZM10.3846 21.668H9.04821C9.11503 23.2716 9.51593 24.8084 10.1841 26.2116L11.1864 25.2093C10.7186 24.1403 10.4514 22.9376 10.3846 21.668ZM10.8523 27.4143C11.6541 28.6838 12.6563 29.7529 13.7922 30.6215L14.7945 29.6192C13.5918 28.7506 12.5895 27.6816 11.8545 26.412L10.8523 27.4143ZM15.9303 30.3542L14.9281 31.3565C16.5317 32.2919 18.4026 32.8933 20.3403 32.9601V31.6238C18.7367 31.4901 17.2667 31.0892 15.9303 30.3542ZM20.3403 39.0404C20.3403 39.4413 20.6075 39.7086 21.0084 39.7086C21.4093 39.7086 21.6766 39.4413 21.6766 39.0404C21.6766 38.6395 21.4093 38.3722 21.0084 38.3722C20.6075 38.3722 20.3403 38.6395 20.3403 39.0404ZM11.6541 20.9999C11.6541 26.1448 15.8635 30.3542 21.0084 30.3542C26.1533 30.3542 30.3628 26.1448 30.3628 20.9999C30.3628 15.855 26.1533 11.6455 21.0084 11.6455C15.8635 11.6455 11.6541 15.855 11.6541 20.9999ZM26.0865 30.3542C24.7502 31.0892 23.2802 31.5569 21.6766 31.6238V32.9601C23.6143 32.8933 25.4851 32.2919 27.0888 31.3565L26.0865 30.3542ZM27.2892 29.6861L28.2246 30.6215C29.3605 29.7529 30.3628 28.6838 31.2314 27.4811L30.2291 26.4789C29.4942 27.7484 28.4919 28.8174 27.2892 29.6861ZM30.8305 25.2093L31.8327 26.2116C32.5009 24.8084 32.9018 23.2716 32.9686 21.668H31.6323C31.5655 22.9376 31.2982 24.1403 30.8305 25.2093ZM30.9641 17.2581C31.365 18.2604 31.5655 19.2626 31.6323 20.3317H32.9018C32.835 18.9286 32.5009 17.5254 31.9664 16.2559L30.9641 17.2581ZM23.013 15.0532C24.5497 15.3873 25.6856 16.7236 25.6856 18.3272C25.6856 19.3963 25.1511 20.3985 24.3493 20.9999C25.1511 21.6012 25.6856 22.6035 25.6856 23.6726C25.6856 25.2762 24.5497 26.6125 23.013 26.9466V28.3497H21.6766V27.0134H20.3403V28.3497H19.004V27.0134H16.9994V25.6771H18.3358V16.3227H16.9994V14.9864H19.004V13.65H20.3403V14.9864H21.6766V13.65H23.013V15.0532ZM22.3448 25.6771C23.4807 25.6771 24.3493 24.8084 24.3493 23.6726C24.3493 22.5367 23.4807 21.6681 22.3448 21.6681H19.6721V25.6771H22.3448ZM19.6721 20.3317H22.3448C23.4807 20.3317 24.3493 19.4631 24.3493 18.3272C24.3493 17.1913 23.4807 16.3227 22.3448 16.3227H19.6721V20.3317Z" fill="url(#paint0_linear_302_783)"/>
<defs>
<linearGradient id="paint0_linear_302_783" x1="37.8252" y1="-5.6441" x2="-5.26676" y2="-1.286" gradientUnits="userSpaceOnUse">
<stop offset="0.55569" stop-color="#FE1D51"/>
<stop offset="1" stop-color="#FF567D"/>
</linearGradient>
</defs>
</svg>
