<svg width="50" height="50" viewBox="0 0 50 50" fill="none" xmlns="http://www.w3.org/2000/svg">
<path fill-rule="evenodd" clip-rule="evenodd" d="M41.3469 18.8674H43.3877C44.5202 18.8674 45.4398 19.7869 45.4285 20.9195V29.0941C45.4285 30.2154 44.5202 31.1349 43.3877 31.1349H41.3469V39.3207C41.3469 39.5001 41.2684 39.6795 41.145 39.8029L35.6953 45.2526C35.5719 45.3872 35.3925 45.4545 35.2131 45.4545H9.3213C8.94004 45.4545 8.63728 45.1517 8.63728 44.7704V29.2623L4.62287 15.1894C4.4771 14.6624 4.53317 14.1129 4.80229 13.6307C5.0602 13.1486 5.49752 12.801 6.02455 12.6552C6.55158 12.5094 7.10104 12.5655 7.58322 12.8346C8.0654 13.0925 8.41301 13.5298 8.55879 14.0569L8.63728 14.326V5.2431C8.63728 4.86184 8.94004 4.55908 9.3213 4.55908H40.6628C41.0441 4.55908 41.3469 4.86184 41.3469 5.2431V18.8674ZM6.00213 14.2811C5.91242 14.4381 5.90121 14.6175 5.94606 14.7969L6.3161 16.1089L7.61686 15.7277L7.24682 14.4157C7.19075 14.2475 7.07862 14.1017 6.92163 14.012C6.76464 13.9223 6.58522 13.9111 6.40581 13.9559C6.23761 14.012 6.09183 14.1241 6.00213 14.2811ZM10.0053 34.0392V44.0752H13.6385L12.6293 42.9651C12.5508 42.8866 12.5059 42.7969 12.4723 42.696L10.0053 34.0392ZM13.7394 42.1689L14.771 43.2903L15.0626 41.7989L8.00933 17.0508L6.69736 17.4209L13.7394 42.1689ZM35.8971 39.9935V43.1109L39.0257 39.9935H35.8971ZM35.2243 38.6255H39.99H40.0012V31.1237H39.5976L36.3905 34.3307C36.256 34.4653 36.0878 34.5326 35.9083 34.5326C35.8186 34.5326 35.7401 34.5102 35.6504 34.4765C35.3925 34.3756 35.2243 34.1289 35.2243 33.8486V31.1237H33.8563C32.7349 31.1237 31.8154 30.2154 31.8154 29.0829V20.9083C31.8154 19.7869 32.7237 18.8674 33.8563 18.8674H39.99V5.92712H10.0053V19.1141L16.4082 41.5746C16.4306 41.6755 16.4418 41.7877 16.4194 41.8886L16.0045 44.0752H34.5403V39.3095C34.5403 38.9282 34.8431 38.6255 35.2243 38.6255ZM43.3877 29.7669C43.769 29.7669 44.0717 29.4641 44.0717 29.0829V20.9083C44.0717 20.527 43.769 20.2242 43.3877 20.2242H33.8451C33.4638 20.2242 33.1611 20.527 33.1611 20.9083V29.0829C33.1611 29.4641 33.4638 29.7669 33.8451 29.7669H35.8859C36.2672 29.7669 36.5699 30.0696 36.5699 30.4509V32.2114L38.8126 29.9687C38.936 29.8342 39.1154 29.7669 39.2948 29.7669H43.3877ZM20.2319 7.96797H29.7745V9.33601H20.2319V7.96797ZM29.7633 22.2763H30.4473V23.6443H13.4141V22.2763H14.771V14.7745C14.771 14.3933 15.0737 14.0905 15.455 14.0905H18.1574C18.5387 14.0905 18.8414 14.3933 18.8414 14.7745V22.2763H20.2095V13.4177C20.2095 13.0364 20.5122 12.7337 20.8935 12.7337H23.6184C23.9996 12.7337 24.3024 13.0364 24.3024 13.4177V22.2763H25.6704V12.0497C25.6704 11.6684 25.9732 11.3656 26.3544 11.3656H29.0793C29.4606 11.3656 29.7633 11.6684 29.7633 12.0497V22.2763ZM16.139 22.2763H17.5071V15.4585H16.139V22.2763ZM21.5887 22.2763H22.9568V14.1017H21.5887V22.2763ZM27.0385 22.2763H28.4065V12.7337H27.0385V22.2763ZM32.4882 11.3768H33.8563V17.5106H35.2243V10.6928C35.2243 10.3116 34.9216 10.0088 34.5403 10.0088H31.8042C31.423 10.0088 31.1202 10.3116 31.1202 10.6928V17.5106H32.4882V11.3768ZM40.0855 21.2344L35.9951 28.0518L37.1681 28.7556L41.2586 21.9382L40.0855 21.2344ZM36.5811 21.5923H37.9492V22.9603H36.5811V21.5923ZM40.6741 27.042H39.306V28.41H40.6741V27.042ZM31.0978 32.4917H33.1723C33.5536 32.4917 33.8563 32.7945 33.8563 33.1533V33.3888C33.8563 36.0576 32.8135 38.5694 30.9296 40.4533C30.795 40.5878 30.6268 40.6551 30.4474 40.6551C30.268 40.6551 30.0998 40.5878 29.9653 40.4533L28.429 38.917C27.0834 40.0496 25.4014 40.6551 23.6297 40.6551C19.5031 40.6551 16.1391 37.2911 16.1391 33.1645C16.1391 29.038 19.4919 25.674 23.6297 25.674C27.5319 25.674 30.7502 28.6792 31.0978 32.4917ZM29.7186 32.4917C29.3822 29.4305 26.7806 27.042 23.6297 27.042C22.7999 27.042 21.9925 27.2102 21.2524 27.513L24.0221 32.4917H29.7186ZM20.0862 28.1858C18.5276 29.2959 17.5071 31.1237 17.5071 33.1757C17.5071 34.6223 18.0005 35.9455 18.8527 37.0107L22.7999 33.0636L20.0862 28.1858ZM19.8059 37.9639C20.86 38.8049 22.1831 39.3095 23.6297 39.3095C25.0426 39.3095 26.377 38.8385 27.4534 37.9639L23.6297 34.1401L19.8059 37.9639ZM25.278 33.8598L30.425 39.0067C31.6697 37.5602 32.3874 35.766 32.4771 33.8598H25.278Z" fill="url(#paint0_linear_302_446)"/>
<defs>
<linearGradient id="paint0_linear_302_446" x1="42.0738" y1="-2.17241" x2="-1.80026" y2="2.25621" gradientUnits="userSpaceOnUse">
<stop offset="0.55569" stop-color="#FE1D51"/>
<stop offset="1" stop-color="#FF567D"/>
</linearGradient>
</defs>
</svg>
