<svg width="42" height="42" viewBox="0 0 42 42" fill="none" xmlns="http://www.w3.org/2000/svg">
<path fill-rule="evenodd" clip-rule="evenodd" d="M24.4839 12.6457H17.5187C16.3662 12.6457 15.4267 11.7061 15.4267 10.5536V3.58851C15.4267 2.43601 16.3662 1.49647 17.5187 1.49647H18.2203V0.105957H19.6108V1.49647H22.3918V0.105957H23.7823V1.49647H24.4839C25.6364 1.49647 26.5759 2.43601 26.5759 3.58851V10.5536C26.5759 11.7061 25.6364 12.6457 24.4839 12.6457ZM17.5187 2.88699C17.1304 2.88699 16.8172 3.20017 16.8172 3.58851H16.8297V4.97903H25.1854V3.58851C25.1854 3.20017 24.8722 2.88699 24.4839 2.88699H23.7823V3.58851H22.3918V2.88699H19.6108V3.58851H18.2203V2.88699H17.5187ZM25.1728 6.36955H16.8172V10.5536C16.8172 10.942 17.1304 11.2551 17.5187 11.2551H24.4713C24.8597 11.2551 25.1728 10.942 25.1728 10.5536V6.36955ZM16.1157 23.4942L16.8172 24.1957V26.5759H0.105957V24.1957L0.807479 23.4942V17.1053L0.105957 16.4038V14.0237H16.8172V16.4038L16.1157 17.1053V23.4942ZM14.7252 16.5416L15.4267 15.8401V15.4267H1.49647V15.8401L2.198 16.5416V24.083L1.49647 24.7845V25.1979H15.4267V24.7845L14.7252 24.083V16.5416ZM4.979 16.8172H3.58848V23.7823H4.979V16.8172ZM6.36955 16.8172H7.76006V23.7823H6.36955V16.8172ZM10.5536 16.8172H9.16311V23.7823H10.5536V16.8172ZM11.9441 16.8172H13.3347V23.7823H11.9441V16.8172ZM7.77262 5.26717V11.9442H9.16314V5.26717L10.7541 6.87064L11.7437 5.881L8.46161 2.59888L5.1795 5.881L6.16914 6.87064L7.77262 5.26717ZM41.8966 14.0362V16.4164L41.1951 17.1179V23.5067L41.8966 24.2083V26.5884H25.1854V24.2083L25.8869 23.5067V17.1179L25.1854 16.4164V14.0362H41.8966ZM39.8046 16.5416L40.5061 15.8401V15.4267H26.5759V15.8401L27.2774 16.5416V24.083L26.5759 24.7845V25.1979H40.5061V24.7845L39.8046 24.083V16.5416ZM25.1854 30.0584C25.1854 31.2109 26.1249 32.1505 27.2774 32.1505H32.852V32.852C32.852 33.2403 32.5388 33.5535 32.1505 33.5535H23.0933V21.7153C23.0933 20.5628 22.1538 19.6233 21.0013 19.6233C19.8488 19.6233 18.9093 20.5628 18.9093 21.7153V33.5535H9.8521C9.46376 33.5535 9.15058 33.2403 9.15058 32.852V32.1505H14.7252C15.8777 32.1505 16.8172 31.2109 16.8172 30.0584V27.9664H0.105957V30.0584C0.105957 31.2109 1.0455 32.1505 2.198 32.1505H7.77259V32.852C7.77259 34.0045 8.71213 34.944 9.86463 34.944H18.9218V37.0361H10.8042C9.93979 37.0361 9.18816 37.5497 8.86246 38.3514L7.43436 41.9091H34.5682L33.1401 38.3514C32.827 37.5497 32.0628 37.0361 31.1984 37.0361H23.0933V34.9315H32.1505C33.303 34.9315 34.2425 33.992 34.2425 32.8395V32.1379H39.8171C40.9696 32.1379 41.9092 31.1984 41.9092 30.0459V27.9539H25.1854V30.0584ZM2.198 30.7474C1.80965 30.7474 1.49647 30.4342 1.49647 30.0459V29.3444H15.4267V30.0459C15.4267 30.4342 15.1135 30.7474 14.7252 30.7474H2.198ZM20.2998 21.7028C20.2998 21.3145 20.613 21.0013 21.0013 21.0013C21.3896 21.0013 21.7028 21.3145 21.7028 21.7028V37.0235H20.3123V21.7028H20.2998ZM31.1984 38.4141C31.4865 38.4141 31.7371 38.5894 31.8498 38.8525L32.5138 40.5061H9.48882L10.1528 38.8525C10.253 38.5894 10.516 38.4141 10.8042 38.4141H31.1984ZM26.5759 29.3569H40.5061V30.0584C40.5061 30.4468 40.1929 30.76 39.8046 30.76H27.2649C26.8765 30.76 26.5634 30.4468 26.5634 30.0584V29.3569H26.5759ZM37.0236 16.8172H38.4141V23.7823H37.0236V16.8172ZM35.6205 16.8172H34.23V23.7823H35.6205V16.8172ZM31.449 16.8172H32.8395V23.7823H31.449V16.8172ZM30.0584 16.8172H28.6679V23.7823H30.0584V16.8172ZM35.8334 7.97303L36.8105 8.95015L33.5409 12.2323L30.2588 8.95015L31.2485 7.97303L32.8394 9.56398V2.887H34.2299V9.56398L35.8334 7.97303ZM20.2997 7.77258H18.9092V9.86462H20.2997V7.77258ZM21.7028 7.77258H23.0933V9.86462H21.7028V7.77258Z" fill="url(#paint0_linear_302_494)"/>
<defs>
<linearGradient id="paint0_linear_302_494" x1="38.4789" y1="-6.77496" x2="-6.3811" y2="-2.24558" gradientUnits="userSpaceOnUse">
<stop offset="0.55569" stop-color="#FE1D51"/>
<stop offset="1" stop-color="#FF567D"/>
</linearGradient>
</defs>
</svg>
