<svg width="42" height="42" viewBox="0 0 42 42" fill="none" xmlns="http://www.w3.org/2000/svg">
<path fill-rule="evenodd" clip-rule="evenodd" d="M7.78698 12.6418L6.30906 10.7609L7.15359 9.29149L10.3206 9.74995L12.3849 7.68099L11.9275 4.50701L13.3937 3.66061L15.9155 5.63553L18.7306 4.88318L19.927 1.89729H21.6161L22.8125 4.88318L25.6276 5.63553L28.1494 3.66061L29.6156 4.50701L29.1581 7.68099L31.2225 9.74995L34.3895 9.29149L34.9994 10.3612L36.1724 9.69118L35.0933 7.82205L31.7034 8.31578L30.5891 7.19901L31.0818 3.78992L28.0321 2.0266L25.3226 4.15434L23.8095 3.7429L22.531 0.54541H19.0121L17.7336 3.7429L16.2088 4.15434L13.511 2.0266L10.4613 3.78992L10.9539 7.19901L9.83965 8.31578L6.44982 7.82205L4.67866 10.8785L6.73133 13.4764L7.78698 12.6418ZM15.3642 31.0156H14.0153V41.1724H15.3642V31.0156ZM4.56134 31.0156H5.91023V41.1724H4.56134V31.0156ZM29.5569 35.7531C31.0466 35.7531 32.2547 34.5423 32.2547 33.0493C32.2547 31.5564 31.0466 30.3456 29.5569 30.3456C28.0673 30.3456 26.8591 31.5564 26.8591 33.0493C26.8474 34.5423 28.0673 35.7531 29.5569 35.7531ZM29.5569 31.6975C30.3076 31.6975 30.9058 32.3087 30.9058 33.0493C30.9058 33.8017 30.2959 34.4012 29.5569 34.4012C28.818 34.4012 28.208 33.7899 28.208 33.0493C28.208 32.297 28.8062 31.6975 29.5569 31.6975ZM33.6036 32.3675H35.6328V33.7194H33.6036V32.3675ZM25.4985 32.3675H23.4693V33.7194H25.4985V32.3675ZM22.8007 38.4686V37.2813C22.8007 36.8111 22.4136 36.4349 21.9562 36.4349H20.7715V29.6637H21.9562C22.4253 29.6637 22.8007 29.2876 22.8007 28.8173V27.63H36.3131V28.8173C36.3131 29.2876 36.6884 29.6637 37.1576 29.6637H38.3423V36.4349H37.1576C36.6884 36.4349 36.3131 36.8111 36.3131 37.2813V38.4686H22.8007ZM24.1379 28.9819C24.0558 30.0634 23.1995 30.9216 22.1204 31.0039V35.083C23.1995 35.1653 24.0558 36.0235 24.1379 37.105H34.9642C35.0463 36.0235 35.9025 35.1653 36.9817 35.083V31.0039C35.9025 30.9216 35.0463 30.0634 34.9642 28.9819H24.1379ZM18.0737 11.384V24.9263V25.6081V27.5007C17.8157 27.3009 17.5224 27.1481 17.2175 27.0305L11.904 25.0673C13.5813 24.3032 14.6956 22.6105 14.6956 20.7413V18.6371C14.6956 16.8268 13.6986 15.2045 12.08 14.3934C10.7545 13.7351 9.17103 13.7351 7.8456 14.3934C6.23866 15.2045 5.22992 16.8268 5.22992 18.6371V20.7413C5.22992 22.6105 6.34422 24.3032 8.02154 25.0673L2.70808 27.0305C1.38264 27.5242 0.50293 28.7938 0.50293 30.2045V41.1841H1.85182V30.2045C1.85182 29.3581 2.37965 28.594 3.17726 28.3001L6.54363 27.054L7.91598 27.8769L7.23567 38.739L9.95691 41.4545L12.6782 38.7272L11.9978 27.8652L13.3702 27.0423L16.7366 28.2884C17.5342 28.5822 18.062 29.3463 18.062 30.1927V31.0156V41.1724H41.0284V25.5963V24.9145V11.384H18.0737ZM6.57881 20.7296V18.6253C6.57881 17.3322 7.29431 16.1802 8.44381 15.5924C8.91299 15.3573 9.44081 15.2398 9.95691 15.2398C10.473 15.2398 10.9891 15.3573 11.47 15.5924C12.6195 16.1684 13.335 17.3322 13.335 18.6253V20.7296C13.335 22.1402 12.4436 23.4216 11.1299 23.9036L9.95691 24.3385L8.78396 23.9036C7.47026 23.4216 6.57881 22.1402 6.57881 20.7296ZM9.95691 39.5384L8.61975 38.1982L9.21795 28.6175C9.45254 28.7115 9.69886 28.7586 9.95691 28.7586C10.2032 28.7586 10.4613 28.7115 10.6959 28.6175L11.2941 38.1982L9.95691 39.5384ZM10.3088 27.3126C10.0977 27.442 9.82789 27.442 9.61676 27.3126L8.18576 26.4545L9.96864 25.7962L11.7515 26.4545L10.3088 27.3126ZM39.6912 39.8205H19.4226V31.0156V30.1927V26.2782H39.6912V39.8205ZM39.6912 24.9263H19.4226V22.8926H39.6912V24.9263ZM39.6912 21.5407H19.4226V19.507H39.6912V21.5407ZM39.6912 18.1551H19.4226V16.1214H39.6912V18.1551ZM39.6912 14.7695H19.4226V12.7358H39.6912V14.7695ZM11.9978 13.0768L10.8249 12.3949C12.8658 8.84478 16.6779 6.63475 20.7598 6.64651C23.5631 6.64651 26.2609 7.66923 28.3605 9.5266L27.469 10.5376C25.6275 8.90356 23.2464 7.99839 20.7715 7.99839C17.1705 7.99839 13.8042 9.9498 11.9978 13.0768Z" fill="url(#paint0_linear_302_142)"/>
<defs>
<linearGradient id="paint0_linear_302_142" x1="37.703" y1="-6.18833" x2="-5.79404" y2="-1.83776" gradientUnits="userSpaceOnUse">
<stop offset="0.55569" stop-color="#FE1D51"/>
<stop offset="1" stop-color="#FF567D"/>
</linearGradient>
</defs>
</svg>
