<svg width="50" height="50" viewBox="0 0 50 50" fill="none" xmlns="http://www.w3.org/2000/svg">
<path fill-rule="evenodd" clip-rule="evenodd" d="M17.4967 18.8683H21.9829L24.9896 21.875L27.9962 18.8683H32.4825C33.607 18.8683 34.5303 17.945 34.5303 16.8205V6.59323C34.5303 5.46871 33.607 4.54541 32.4825 4.54541H17.4967C16.3721 4.54541 15.4488 5.46871 15.4488 6.59323V16.8205C15.4607 17.945 16.3721 18.8683 17.4967 18.8683ZM16.8219 6.59323C16.8219 6.21444 17.1297 5.90668 17.5085 5.90668H32.5061C32.8849 5.90668 33.1927 6.21444 33.1927 6.59323V16.8205C33.1927 17.1993 32.8849 17.5071 32.5061 17.5071H27.4517L25.0014 19.9573L22.5511 17.5071H17.4967C17.1179 17.5071 16.8101 17.1993 16.8101 16.8205V6.59323H16.8219ZM30.6359 33.428L27.0374 32.2324C28.2922 31.5104 29.0971 30.1728 29.0971 28.6813V27.3082C29.0971 25.6273 28.091 24.1358 26.5285 23.5085C25.546 23.1178 24.4688 23.1178 23.4863 23.5085C21.9238 24.1358 20.9177 25.6273 20.9177 27.3082V28.6813C20.9177 30.1728 21.7226 31.5104 22.9773 32.2324L19.367 33.428C18.2543 33.7949 17.4967 34.8366 17.4967 36.0203V45.4545H18.8698V36.0203C18.8698 35.4285 19.2486 34.9076 19.805 34.7301L25.0133 32.99L30.2216 34.7301C30.778 34.9195 31.1568 35.4403 31.1568 36.0203V45.4545H32.518V36.0203C32.5062 34.8484 31.7486 33.8068 30.6359 33.428ZM25.8656 31.2618L25.0015 31.5459L24.1374 31.2618C23.0247 30.8948 22.2671 29.8532 22.2671 28.6695V27.2964C22.2671 26.1718 22.9418 25.1775 23.9835 24.7632C24.3149 24.633 24.6582 24.562 25.0015 24.562C25.3447 24.562 25.688 24.633 26.0195 24.7632C27.0611 25.1775 27.7358 26.1718 27.7358 27.2964V28.6695C27.724 29.8532 26.9783 30.8948 25.8656 31.2618ZM28.4105 37.275H29.7717V45.4545H28.4105V37.275ZM21.5923 37.275H20.2311V45.4545H21.5923V37.275ZM41.8575 35.4876L44.1065 36.3044C44.9114 36.6003 45.4559 37.3697 45.4678 38.222V45.4427H44.1065V38.222C44.1065 37.9379 43.929 37.6775 43.6567 37.5828L40.0109 36.2571L36.365 37.5828C36.0928 37.6775 35.9152 37.9379 35.9152 38.222V45.4427H34.5421V38.222C34.5421 37.3697 35.0866 36.6003 35.8915 36.3044L38.1406 35.4876C37.1936 34.8721 36.5899 33.7949 36.5899 32.6349V32.1377C36.5899 30.8356 37.312 29.6638 38.472 29.0838C39.4309 28.6103 40.5672 28.6103 41.526 29.0838C42.6861 29.6756 43.4081 30.8356 43.4081 32.1377V32.6349C43.4081 33.7949 42.8044 34.8721 41.8575 35.4876ZM39.999 34.8011L40.6974 34.5525C41.5023 34.2684 42.0469 33.4872 42.0469 32.6349V32.1377C42.0469 31.3565 41.6089 30.6463 40.9105 30.303C40.6264 30.1609 40.3186 30.0899 39.999 30.0899C39.6913 30.0899 39.3717 30.1609 39.0876 30.303C38.3892 30.6581 37.9512 31.3565 37.9512 32.1377V32.6349C37.9512 33.4872 38.4957 34.2566 39.3006 34.5525L39.999 34.8011ZM42.7216 39.9976H41.3603V45.4545H42.7216V39.9976ZM37.2765 39.9976H38.6378V45.4545H37.2765V39.9976ZM14.1113 36.3044L11.8622 35.4876C12.8092 34.8721 13.4129 33.7949 13.4129 32.6349V32.1377C13.4129 30.8356 12.6908 29.6756 11.5308 29.0838C10.572 28.6103 9.43561 28.6103 8.4768 29.0838C7.31676 29.6638 6.5947 30.8356 6.5947 32.1377V32.6349C6.5947 33.7949 7.19839 34.8721 8.14536 35.4876L5.89631 36.3044C5.09138 36.6003 4.54688 37.3697 4.54688 38.222V45.4427H5.90814V38.222C5.90814 37.9379 6.0857 37.6775 6.35795 37.5828L10.0038 36.2571L13.6496 37.5828C13.9219 37.6775 14.0994 37.9379 14.0994 38.222V45.4427H15.4607V38.222C15.4607 37.3697 14.9162 36.6003 14.1113 36.3044ZM10.7022 34.5525L10.0038 34.8011L9.3054 34.5525C8.50047 34.2566 7.95597 33.4872 7.95597 32.6349V32.1377C7.95597 31.3565 8.39394 30.6581 9.09233 30.303C9.37642 30.1609 9.69602 30.0899 10.0038 30.0899C10.3234 30.0899 10.6312 30.1609 10.9152 30.303C11.6136 30.6463 12.0516 31.3565 12.0516 32.1377V32.6349C12.0516 33.4872 11.5071 34.2684 10.7022 34.5525ZM11.3651 39.9976H12.7264V45.4545H11.3651V39.9976ZM8.63072 39.9976H7.26945V45.4545H8.63072V39.9976ZM12.7263 19.543V21.5909H11.365V19.543H9.3172V18.1818H11.365V16.1339H12.7263V18.1818H14.7741V19.543H12.7263ZM23.6401 11.6477L25.688 13.6955L29.7718 9.59986V11.3636H31.133V7.26795H27.0492V8.64105H28.813L25.688 11.7661L23.6401 9.71823L18.3845 14.9739L19.3433 15.9327L23.6401 11.6477ZM9.66051 24.9999H6.5947C5.47017 24.9999 4.54688 24.0767 4.54688 22.9521V14.7727C4.54688 13.6482 5.47017 12.7249 6.5947 12.7249H14.0994V14.0861H6.5947C6.21591 14.0861 5.90814 14.3939 5.90814 14.7727V22.9521C5.90814 23.3309 6.21591 23.6387 6.5947 23.6387H10.3471L12.0516 25.9114L13.7562 23.6387H17.5085C17.8873 23.6387 18.1951 23.3309 18.1951 22.9521V20.2296H19.5563V22.9521C19.5563 24.0767 18.633 24.9999 17.5085 24.9999H14.4427L12.0516 28.1841L9.66051 24.9999ZM37.2765 21.5909H38.6378V19.543H40.6856V18.1818H38.6378V16.1339H37.2765V18.1818H35.2287V19.543H37.2765V21.5909ZM35.9153 12.7249H43.4082C44.5327 12.7249 45.456 13.6482 45.4678 14.7727V22.9521C45.4678 24.0767 44.5445 24.9999 43.42 24.9999H40.3542L37.9631 28.1841L35.572 24.9999H32.5062C31.3817 24.9999 30.4584 24.0767 30.4584 22.9521V20.2296H31.8196V22.9521C31.8196 23.3309 32.1274 23.6387 32.5062 23.6387H36.2586L37.9631 25.9114L39.6676 23.6387H43.42C43.7988 23.6387 44.1066 23.3309 44.1066 22.9521V14.7727C44.1066 14.3939 43.7988 14.0861 43.42 14.0861H35.9153V12.7249Z" fill="url(#paint0_linear_181_1116)"/>
<defs>
<linearGradient id="paint0_linear_181_1116" x1="42.11" y1="-2.18834" x2="-1.80302" y2="2.24671" gradientUnits="userSpaceOnUse">
<stop offset="0.55569" stop-color="#FE1D51"/>
<stop offset="1" stop-color="#FF567D"/>
</linearGradient>
</defs>
</svg>
