<svg width="42" height="42" viewBox="0 0 42 42" fill="none" xmlns="http://www.w3.org/2000/svg">
<path fill-rule="evenodd" clip-rule="evenodd" d="M36.6363 7.93997C36.6363 6.44844 35.416 5.23311 33.9184 5.23311C33.5412 5.23311 33.2417 4.93481 33.2417 4.55916C33.2417 4.18351 33.5412 3.88521 33.9184 3.88521C35.416 3.88521 36.6363 2.66988 36.6363 1.17835C36.6363 0.802701 36.9359 0.504395 37.313 0.504395C37.6902 0.504395 37.9898 0.802701 37.9898 1.17835C37.9898 2.66988 39.2101 3.88521 40.7077 3.88521C41.0849 3.88521 41.3844 4.18351 41.3844 4.55916C41.3844 4.93481 41.0849 5.23311 40.7077 5.23311C39.2101 5.23311 37.9898 6.44844 37.9898 7.93997C37.9898 8.31562 37.6902 8.61393 37.313 8.61393C36.9359 8.61393 36.6363 8.31562 36.6363 7.93997ZM38.4557 4.54811C38.0009 4.24981 37.6126 3.86311 37.313 3.41013C37.0135 3.86311 36.6252 4.24981 36.1704 4.54811C36.6252 4.84642 37.0135 5.23311 37.313 5.6861C37.6126 5.23311 38.0009 4.84642 38.4557 4.54811ZM32.3209 37.7707L32.4541 37.7375L41.2735 36.3786L41.4843 37.7154L32.7203 39.0634L27.351 41.0742C27.2733 41.1073 27.1846 41.1184 27.1069 41.1184C27.0626 41.1184 27.0182 41.1184 26.9738 41.1073L20.9943 39.8699L15.0149 41.1073C14.9705 41.1184 14.9261 41.1184 14.8817 41.1184C14.793 41.1184 14.7153 41.1073 14.6377 41.0742L9.26837 39.0634L0.504395 37.7154L0.715174 36.3786L9.54571 37.7375C9.57529 37.7375 9.60488 37.7474 9.63446 37.7572C9.64925 37.7621 9.66404 37.767 9.67883 37.7707L14.9372 39.7373L30.3352 36.5443C29.958 35.7378 29.0927 35.2627 28.1719 35.4063L17.7106 37.0525C17.5664 37.0746 17.4222 37.0525 17.3002 36.9862L13.2177 34.9533C12.9515 34.8097 12.7961 34.5225 12.8516 34.2241C12.9071 33.9258 13.1511 33.7049 13.4507 33.6717L17.1449 33.2629C18.0434 33.1635 18.7534 32.4895 18.9198 31.6388H12.6186C12.0751 31.6388 11.5648 31.8487 11.1765 32.2354L9.93399 33.4729C9.77868 33.6275 9.5568 33.6938 9.34602 33.6607L0.504395 32.3017L0.715174 30.9759L4.6867 31.5836V6.59207C4.6867 5.46513 5.60747 4.55916 6.72792 4.55916H9.44587V5.90707H6.72792C6.35074 5.90707 6.05121 6.20537 6.05121 6.58102V18.7785C6.05121 19.1541 6.35074 19.4524 6.72792 19.4524H35.2719C35.649 19.4524 35.9486 19.1541 35.9486 18.7785V9.97288H37.3131V31.5946L41.2846 30.987L41.4954 32.3238L32.6538 33.6828C32.4319 33.7159 32.2211 33.6496 32.0658 33.495L30.8233 32.2575C30.435 31.8708 29.9247 31.6609 29.3811 31.6609H23.0467C23.1576 32.5337 23.8343 33.2519 24.7329 33.4066L28.4825 34.0474C30.0246 34.0363 31.3891 35.0749 31.7774 36.6106L31.855 36.9089C31.8994 37.0857 31.8661 37.2735 31.7663 37.4282C31.6775 37.5829 31.5111 37.6933 31.3336 37.7265L24.3335 39.1738L27.0626 39.7373L32.3209 37.7707ZM35.2719 20.8003H24.4001V23.5072H35.9486V20.6788C35.7378 20.7561 35.5048 20.8003 35.2719 20.8003ZM35.9597 24.8661H24.4001V27.573H35.9597V24.8661ZM35.9597 28.932H24.4001V30.2909H29.3922C30.3019 30.2909 31.1561 30.6445 31.7995 31.2853L32.798 32.2796L35.9597 31.7935V28.932ZM12.6076 30.2799H17.5997H17.6108V28.9209H6.05121V31.7824L9.20181 32.2686L10.2002 31.2742C10.8437 30.6334 11.6979 30.2799 12.6076 30.2799ZM6.05121 27.573H17.5997H17.6108V24.8661H6.05121V27.573ZM6.05121 23.5072H17.5997V20.8003H6.72792C6.49496 20.8003 6.26199 20.7561 6.05121 20.6788V23.5072ZM15.8802 34.7655L17.7106 35.6715L24.2004 34.644C22.725 34.2573 21.6821 32.9204 21.6821 31.3737V30.9538C21.6821 30.5782 21.9817 30.2799 22.3589 30.2799H23.0467V20.8003H18.9642V30.2799H19.6409C20.0181 30.2799 20.3176 30.5782 20.3176 30.9538V31.2411C20.3176 32.9757 19.0086 34.423 17.2891 34.6108L15.8802 34.7655ZM20.3176 4.55916H31.8772V5.91812H20.3176V4.55916ZM21.0054 7.26603C18.0102 7.26603 15.5696 9.69668 15.5696 12.6797C15.5696 15.6628 18.0102 18.0935 21.0054 18.0935C24.0007 18.0935 26.4413 15.6628 26.4413 12.6797C26.4413 9.69668 24.0007 7.26603 21.0054 7.26603ZM21.0054 16.7456C18.7534 16.7456 16.923 14.9226 16.923 12.6797C16.923 10.4369 18.7534 8.61393 21.0054 8.61393C23.2574 8.61393 25.0879 10.4369 25.0879 12.6797C25.0768 14.9226 23.2464 16.7456 21.0054 16.7456ZM7.40461 9.97289C7.40461 9.59724 7.70414 9.29893 8.08133 9.29893C8.83569 9.29893 9.44584 8.69127 9.44584 7.93998C9.44584 7.56433 9.74537 7.26603 10.1226 7.26603H12.8516V8.61393H10.7216C10.4776 9.5641 9.72318 10.3154 8.76913 10.5585V14.79C9.72318 15.0331 10.4776 15.7843 10.7216 16.7345H15.5584V18.0935H10.1226C9.74537 18.0935 9.44584 17.7952 9.44584 17.4195C9.44584 16.6682 8.83569 16.0606 8.08133 16.0606C7.70414 16.0606 7.40461 15.7623 7.40461 15.3866V9.97289ZM14.205 12.0058H10.1226V13.3647H14.205V12.0058ZM26.4413 8.62498V7.27708H31.8772C32.2544 7.27708 32.5539 7.57538 32.5539 7.95103C32.5539 8.70232 33.1641 9.30998 33.9184 9.30998C34.2956 9.30998 34.5951 9.60829 34.5951 9.98393V15.3977C34.5951 15.7733 34.2956 16.0716 33.9184 16.0716C33.1641 16.0716 32.5539 16.6793 32.5539 17.4306C32.5539 17.8062 32.2544 18.1045 31.8772 18.1045H26.4413V16.7456H31.2892C31.5333 15.7954 32.2877 15.0441 33.2417 14.801V10.5695C32.2877 10.3264 31.5333 9.57514 31.2892 8.62498H26.4413ZM31.8772 12.0058H27.7948V13.3647H31.8772V12.0058ZM11.4871 5.23311C12.9847 5.23311 14.205 6.44844 14.205 7.93997C14.205 8.31562 14.5046 8.61393 14.8818 8.61393C15.2589 8.61393 15.5585 8.31562 15.5585 7.93997C15.5585 6.44844 16.7788 5.23311 18.2764 5.23311C18.6536 5.23311 18.9531 4.93481 18.9531 4.55916C18.9531 4.18351 18.6536 3.88521 18.2764 3.88521C16.7788 3.88521 15.5585 2.66988 15.5585 1.17835C15.5585 0.802701 15.2589 0.504395 14.8818 0.504395C14.5046 0.504395 14.205 0.802701 14.205 1.17835C14.205 2.66988 12.9847 3.88521 11.4871 3.88521C11.1099 3.88521 10.8104 4.18351 10.8104 4.55916C10.8104 4.93481 11.1099 5.23311 11.4871 5.23311ZM14.8818 3.41013C15.1813 3.86311 15.5696 4.24981 16.0244 4.54811C15.5696 4.84642 15.1813 5.23311 14.8818 5.6861C14.5822 5.23311 14.1939 4.84642 13.7391 4.54811C14.1939 4.24981 14.5822 3.86311 14.8818 3.41013ZM18.4761 12.2047L20.5173 10.1717C20.7836 9.90658 21.2162 9.90658 21.4825 10.1717L23.5237 12.2047L22.5585 13.1659L21.6821 12.293V15.3976H20.3176V12.293L19.4412 13.1659L18.4761 12.2047Z" fill="url(#paint0_linear_302_765)"/>
<defs>
<linearGradient id="paint0_linear_302_765" x1="38.1318" y1="-6.18077" x2="-5.84835" y2="-1.69901" gradientUnits="userSpaceOnUse">
<stop offset="0.55569" stop-color="#FE1D51"/>
<stop offset="1" stop-color="#FF567D"/>
</linearGradient>
</defs>
</svg>
